<svg width="274" height="145" viewBox="0 0 274 145" fill="none" xmlns="http://www.w3.org/2000/svg">
<path d="M24.8137 120.9C25.7377 120.9 26.5357 120.762 27.2077 120.486C27.8797 120.21 28.4317 119.826 28.8637 119.334C29.3077 118.83 29.6317 118.236 29.8357 117.552C30.0517 116.868 30.1597 116.112 30.1597 115.284C30.1597 114.696 30.0757 114.156 29.9077 113.664C29.7397 113.172 29.4817 112.758 29.1337 112.422C28.7857 112.074 28.3477 111.804 27.8197 111.612C27.3037 111.42 26.6857 111.324 25.9657 111.324H22.7257L21.5557 120.9H24.8137ZM26.4157 107.724C27.8917 107.724 29.1577 107.904 30.2137 108.264C31.2817 108.612 32.1577 109.104 32.8417 109.74C33.5257 110.376 34.0297 111.132 34.3537 112.008C34.6897 112.872 34.8577 113.826 34.8577 114.87C34.8577 116.262 34.6357 117.552 34.1917 118.74C33.7597 119.916 33.1057 120.936 32.2297 121.8C31.3537 122.652 30.2557 123.324 28.9357 123.816C27.6277 124.296 26.0977 124.536 24.3457 124.536H21.1057L19.9717 133.752H15.3277L18.4957 107.724H26.4157ZM48.1257 120.162C49.0617 120.162 49.8657 120.03 50.5377 119.766C51.2217 119.49 51.7857 119.118 52.2297 118.65C52.6737 118.17 53.0037 117.612 53.2197 116.976C53.4357 116.34 53.5437 115.656 53.5437 114.924C53.5437 113.796 53.1897 112.914 52.4817 112.278C51.7857 111.642 50.7117 111.324 49.2597 111.324H46.5237L45.4437 120.162H48.1257ZM49.6917 107.724C51.1917 107.724 52.4757 107.886 53.5437 108.21C54.6237 108.522 55.5057 108.966 56.1897 109.542C56.8737 110.106 57.3777 110.784 57.7017 111.576C58.0257 112.368 58.1877 113.238 58.1877 114.186C58.1877 115.182 58.0437 116.124 57.7557 117.012C57.4797 117.9 57.0777 118.704 56.5497 119.424C56.0217 120.144 55.3737 120.774 54.6057 121.314C53.8377 121.854 52.9677 122.274 51.9957 122.574C52.2717 122.742 52.5177 122.946 52.7337 123.186C52.9617 123.426 53.1597 123.714 53.3277 124.05L57.9717 133.752H53.7777C52.9737 133.752 52.4397 133.44 52.1757 132.816L48.3597 124.374C48.2157 124.062 48.0357 123.84 47.8197 123.708C47.6157 123.564 47.2917 123.492 46.8477 123.492H45.0297L43.7697 133.752H39.1257L42.2937 107.724H49.6917ZM71.0436 111.45L70.1256 118.848H78.3516L77.9016 122.43H69.6756L68.7396 130.026H79.2516L78.7836 133.752H63.5916L66.7956 107.724H81.9696L81.5016 111.45H71.0436ZM101.324 112.404C101.156 112.644 100.988 112.824 100.82 112.944C100.664 113.052 100.466 113.106 100.226 113.106C99.9864 113.106 99.7404 113.01 99.4884 112.818C99.2364 112.626 98.9364 112.416 98.5884 112.188C98.2404 111.948 97.8264 111.732 97.3464 111.54C96.8664 111.348 96.2904 111.252 95.6184 111.252C94.9704 111.252 94.3944 111.348 93.8904 111.54C93.3864 111.732 92.9604 111.996 92.6124 112.332C92.2764 112.668 92.0184 113.064 91.8384 113.52C91.6704 113.976 91.5864 114.468 91.5864 114.996C91.5864 115.548 91.7244 116.01 92.0004 116.382C92.2884 116.742 92.6604 117.06 93.1164 117.336C93.5724 117.612 94.0944 117.858 94.6824 118.074C95.2704 118.29 95.8644 118.518 96.4644 118.758C97.0764 118.998 97.6764 119.274 98.2644 119.586C98.8524 119.898 99.3744 120.282 99.8304 120.738C100.286 121.194 100.652 121.746 100.928 122.394C101.216 123.03 101.36 123.804 101.36 124.716C101.36 125.988 101.138 127.188 100.694 128.316C100.25 129.444 99.6204 130.434 98.8044 131.286C97.9884 132.126 96.9924 132.798 95.8164 133.302C94.6404 133.794 93.3264 134.04 91.8744 134.04C91.1184 134.04 90.3744 133.956 89.6424 133.788C88.9104 133.632 88.2204 133.404 87.5724 133.104C86.9244 132.804 86.3244 132.444 85.7724 132.024C85.2204 131.604 84.7404 131.136 84.3324 130.62L85.9884 128.388C86.1204 128.22 86.2884 128.082 86.4924 127.974C86.6964 127.866 86.9004 127.812 87.1044 127.812C87.2964 127.812 87.4824 127.872 87.6624 127.992C87.8544 128.112 88.0584 128.262 88.2744 128.442C88.5024 128.61 88.7424 128.802 88.9944 129.018C89.2584 129.222 89.5524 129.414 89.8764 129.594C90.2124 129.762 90.5904 129.906 91.0104 130.026C91.4424 130.146 91.9284 130.206 92.4684 130.206C93.8364 130.206 94.9044 129.822 95.6724 129.054C96.4404 128.286 96.8244 127.224 96.8244 125.868C96.8244 125.268 96.6864 124.776 96.4104 124.392C96.1344 124.008 95.7684 123.684 95.3124 123.42C94.8564 123.156 94.3344 122.928 93.7464 122.736C93.1704 122.532 92.5824 122.322 91.9824 122.106C91.3824 121.878 90.7884 121.62 90.2004 121.332C89.6244 121.032 89.1084 120.654 88.6524 120.198C88.1964 119.73 87.8304 119.16 87.5544 118.488C87.2784 117.816 87.1404 116.988 87.1404 116.004C87.1404 114.888 87.3444 113.814 87.7524 112.782C88.1724 111.75 88.7664 110.844 89.5344 110.064C90.3144 109.272 91.2504 108.642 92.3424 108.174C93.4464 107.694 94.6884 107.454 96.0684 107.454C96.7764 107.454 97.4544 107.526 98.1024 107.67C98.7624 107.814 99.3744 108.018 99.9384 108.282C100.502 108.546 101.018 108.864 101.486 109.236C101.966 109.596 102.38 109.998 102.728 110.442L101.324 112.404ZM111.913 133.752H107.215L110.383 107.724H115.081L111.913 133.752ZM143.367 118.992C143.367 121.152 143.019 123.138 142.323 124.95C141.627 126.762 140.655 128.322 139.407 129.63C138.171 130.926 136.701 131.94 134.997 132.672C133.293 133.392 131.433 133.752 129.417 133.752H120.255L123.459 107.724H132.639C134.295 107.724 135.783 108.006 137.103 108.57C138.435 109.134 139.563 109.914 140.487 110.91C141.411 111.906 142.119 113.094 142.611 114.474C143.115 115.854 143.367 117.36 143.367 118.992ZM138.579 119.1C138.579 117.936 138.435 116.88 138.147 115.932C137.859 114.984 137.439 114.18 136.887 113.52C136.347 112.848 135.681 112.332 134.889 111.972C134.097 111.612 133.191 111.432 132.171 111.432H127.707L125.403 130.026H129.885C131.193 130.026 132.381 129.774 133.449 129.27C134.517 128.766 135.429 128.046 136.185 127.11C136.953 126.162 137.541 125.016 137.949 123.672C138.369 122.316 138.579 120.792 138.579 119.1ZM156.075 111.45L155.157 118.848H163.383L162.933 122.43H154.707L153.771 130.026H164.283L163.815 133.752H148.623L151.827 107.724H167.001L166.533 111.45H156.075ZM194.366 107.724L191.162 133.752H188.75C188.39 133.752 188.09 133.692 187.85 133.572C187.622 133.44 187.406 133.23 187.202 132.942L177.122 115.158C177.098 115.458 177.074 115.746 177.05 116.022C177.026 116.286 177.002 116.538 176.978 116.778L174.926 133.752H170.804L174.008 107.724H176.456C176.66 107.724 176.828 107.736 176.96 107.76C177.104 107.772 177.23 107.808 177.338 107.868C177.446 107.916 177.542 107.988 177.626 108.084C177.71 108.18 177.8 108.312 177.896 108.48L188.03 126.246C188.054 125.886 188.078 125.544 188.102 125.22C188.138 124.884 188.174 124.578 188.21 124.302L190.244 107.724H194.366ZM210.468 130.08C211.2 130.08 211.836 130.026 212.376 129.918C212.916 129.798 213.39 129.648 213.798 129.468C214.206 129.288 214.548 129.102 214.824 128.91C215.112 128.706 215.364 128.514 215.58 128.334C215.796 128.154 215.988 128.01 216.156 127.902C216.324 127.782 216.492 127.722 216.66 127.722C216.816 127.722 216.942 127.752 217.038 127.812C217.134 127.872 217.212 127.932 217.272 127.992L218.91 130.026C217.782 131.322 216.456 132.318 214.932 133.014C213.408 133.698 211.656 134.04 209.676 134.04C208.068 134.04 206.64 133.758 205.392 133.194C204.144 132.618 203.088 131.826 202.224 130.818C201.372 129.81 200.718 128.616 200.262 127.236C199.818 125.856 199.596 124.35 199.596 122.718C199.596 121.218 199.758 119.802 200.082 118.47C200.406 117.126 200.868 115.89 201.468 114.762C202.068 113.622 202.782 112.602 203.61 111.702C204.45 110.802 205.38 110.034 206.4 109.398C207.432 108.762 208.536 108.276 209.712 107.94C210.9 107.604 212.136 107.436 213.42 107.436C214.368 107.436 215.232 107.526 216.012 107.706C216.792 107.874 217.494 108.114 218.118 108.426C218.754 108.738 219.324 109.116 219.828 109.56C220.344 109.992 220.806 110.478 221.214 111.018L219.594 112.962C219.474 113.106 219.33 113.232 219.162 113.34C219.006 113.448 218.808 113.502 218.568 113.502C218.304 113.502 218.052 113.394 217.812 113.178C217.572 112.962 217.266 112.728 216.894 112.476C216.534 112.212 216.06 111.972 215.472 111.756C214.896 111.54 214.134 111.432 213.186 111.432C211.938 111.432 210.774 111.69 209.694 112.206C208.626 112.71 207.696 113.436 206.904 114.384C206.112 115.332 205.488 116.478 205.032 117.822C204.588 119.154 204.366 120.654 204.366 122.322C204.366 123.534 204.516 124.62 204.816 125.58C205.128 126.54 205.554 127.356 206.094 128.028C206.646 128.688 207.294 129.198 208.038 129.558C208.782 129.906 209.592 130.08 210.468 130.08ZM229.426 133.752H224.728L227.896 107.724H232.594L229.426 133.752ZM251.718 123.96L249.954 115.05C249.882 114.642 249.798 114.168 249.702 113.628C249.606 113.088 249.51 112.5 249.414 111.864C249.174 112.5 248.94 113.088 248.712 113.628C248.484 114.168 248.28 114.648 248.1 115.068L244.158 123.96H251.718ZM258.504 133.752H254.886C254.478 133.752 254.16 133.656 253.932 133.464C253.716 133.26 253.56 133.002 253.464 132.69L252.384 127.254H242.682L240.27 132.69C240.138 132.966 239.922 133.212 239.622 133.428C239.334 133.644 238.998 133.752 238.614 133.752H234.942L247.524 107.724H252.294L258.504 133.752Z" fill="#294165"/>
<path d="M165.354 30.6546H139.704V39.5966C139.704 45.9358 134.253 51.0933 127.554 51.0933C120.854 51.0933 115.404 45.9358 115.404 39.5966V20.1798L104.452 26.4072C101.195 28.2435 99.2038 31.5808 99.2038 35.1575V42.7103L85.7038 50.0874C83.122 51.4925 82.2276 54.6222 83.7295 57.0653L97.2294 79.1966C98.7144 81.6396 102.022 82.47 104.604 81.0648L122.053 71.5321H145.104C151.061 71.5321 155.904 66.9493 155.904 61.3127H158.604C161.591 61.3127 164.004 59.0293 164.004 56.203V45.9837H165.354C167.598 45.9837 169.404 44.2751 169.404 42.1514V34.4869C169.404 32.3632 167.598 30.6546 165.354 30.6546ZM190.278 24.6827L176.778 2.55139C175.293 0.10832 171.986 -0.722003 169.404 0.683159L151.955 10.2159H134.709C132.684 10.2159 130.709 10.7588 128.988 11.7648L123.335 15.102C121.749 16.0282 120.804 17.6728 120.804 19.4293V39.5966C120.804 43.1254 123.824 45.9837 127.554 45.9837C131.283 45.9837 134.304 43.1254 134.304 39.5966V25.5449H165.354C170.568 25.5449 174.804 29.5528 174.804 34.4869V39.0377L188.304 31.6606C190.886 30.2395 191.763 27.1258 190.278 24.6827V24.6827Z" fill="#294165"/>
</svg>
