<svg width="108" height="95" viewBox="0 0 108 95" fill="none" xmlns="http://www.w3.org/2000/svg">
<path d="M107.644 52.4623L99.1406 14.0815C98.0325 9.07558 95.0925 4.77726 91.0781 2.29331C87.0581 -0.1843 82.2712 -0.687003 77.9175 0.956288L75.0581 2.02928C73.485 2.61859 72.6356 4.53435 73.1606 6.30438L74.1094 9.51069C74.6325 11.2807 76.3313 12.2375 77.9025 11.6482L80.3737 10.721C82.4119 9.95637 84.6862 9.96693 86.5912 11.0864C88.5206 12.2206 89.8856 14.1618 90.4106 16.5401L97.6219 49.0299C93.4613 47.5915 88.2863 46.3981 82.3969 46.3981C75.8775 46.3981 68.5256 47.8809 60.8625 52.0462H47.1413C39.4781 47.8767 32.1263 46.396 25.605 46.396C19.7137 46.396 14.5387 47.5894 10.3781 49.0278L17.5894 16.5359C18.1125 14.1596 19.4813 12.2164 21.4106 11.0843C23.3156 9.96482 25.5881 9.95425 27.6262 10.7189L30.0956 11.6461C31.6669 12.2354 33.3656 11.2786 33.8888 9.50858L34.8375 6.30226C35.3625 4.53224 34.5131 2.61648 32.94 2.02717L30.0806 0.954175C25.7269 -0.689116 20.94 -0.188524 16.92 2.2912C12.9056 4.77726 9.96563 9.07347 8.8575 14.0773L0.35625 52.4623C0.119869 53.5325 0.000235365 54.6312 0 55.7341L0 70.5723C0 83.858 9.67125 94.6281 21.6 94.6281H28.56C39.8625 94.6281 49.2544 84.9246 50.1 72.3718L50.6494 64.2124H57.3525L57.9019 72.3718C58.7456 84.9246 68.1375 94.6281 79.44 94.6281H86.4C98.3288 94.6281 108 83.858 108 70.5744V55.7362C108 54.6315 107.88 53.5331 107.644 52.4623ZM38.1338 71.3495C37.7644 76.8223 33.5588 81.11 28.56 81.11H21.6C16.3069 81.11 12 76.3829 12 70.5723V62.6431C15.3975 61.2722 20.1413 59.9141 25.6087 59.9141C30.0825 59.9141 34.47 60.8287 38.7206 62.6431L38.1338 71.3495ZM96 70.5744C96 76.385 91.6931 81.11 86.4 81.11H79.44C74.4394 81.11 70.2337 76.8223 69.8662 71.3495L69.2794 62.6431C73.53 60.8287 77.9194 59.9141 82.395 59.9141C87.855 59.9141 92.6006 61.2743 95.9981 62.6452V70.5744H96Z" fill="#294165"/>
</svg>
