<svg width="108" height="81" viewBox="0 0 108 81" fill="none" xmlns="http://www.w3.org/2000/svg">
<path d="M70.2 54H78.3C79.65 54 81 52.65 81 51.3V22.95C81 21.6 79.65 20.25 78.3 20.25H70.2C68.85 20.25 67.5 21.6 67.5 22.95V51.3C67.5 52.65 68.85 54 70.2 54ZM90.45 54H98.55C99.9 54 101.25 52.65 101.25 51.3V2.7C101.25 1.35 99.9 0 98.55 0H90.45C89.1 0 87.75 1.35 87.75 2.7V51.3C87.75 52.65 89.1 54 90.45 54ZM29.7 54H37.8C39.15 54 40.5 52.65 40.5 51.3V36.45C40.5 35.1 39.15 33.75 37.8 33.75H29.7C28.35 33.75 27 35.1 27 36.45V51.3C27 52.65 28.35 54 29.7 54ZM49.95 54H58.05C59.4 54 60.75 52.65 60.75 51.3V9.45C60.75 8.1 59.4 6.75 58.05 6.75H49.95C48.6 6.75 47.25 8.1 47.25 9.45V51.3C47.25 52.65 48.6 54 49.95 54ZM104.625 67.5H13.5V3.375C13.5 1.51031 11.9897 0 10.125 0H3.375C1.51031 0 0 1.51031 0 3.375V74.25C0 77.9773 3.02273 81 6.75 81H104.625C106.49 81 108 79.4897 108 77.625V70.875C108 69.0103 106.49 67.5 104.625 67.5Z" fill="#294165"/>
</svg>
