<svg width="100" height="104" viewBox="0 0 100 104" fill="none" xmlns="http://www.w3.org/2000/svg">
<path fill-rule="evenodd" clip-rule="evenodd" d="M50.504 7.92892L49.5972 0.998535L42.0366 13.0745L5.103 3.68124L10.5432 11.3089L3.08163 5.66479L11.6414 43.3538L0.01973 50.4706L6.75105 51.5432L0.00146484 52.4546L12.7961 60.7128L2.67647 96.3212L10.7408 90.3924L4.65096 98.3524L40.0956 89.0878L48.0472 102.973L49.1039 95.9131L49.9959 103.002L57.8442 90.0139L94.2167 99.4125L88.721 91.7278L96.2381 97.429L87.6083 60.0872L99.9119 52.9334L93.0501 51.8906L99.9293 51.0121L87.8349 43.5911L97.4602 7.28411L89.6797 12.9343L95.4857 5.2529L59.2905 14.0251L51.5718 1.02718L50.504 7.92892ZM49.7681 32.9087L31.0346 51.7298L49.7681 70.5508L68.5016 51.7298L49.7681 32.9087Z" fill="white"/>
</svg>
