<svg width="612" height="173" viewBox="0 0 612 173" fill="none" xmlns="http://www.w3.org/2000/svg">
<path fill-rule="evenodd" clip-rule="evenodd" d="M85.7814 11.7149L84.2424 0L71.4012 20.4159L8.66648 4.53166L17.9089 17.4294L5.23275 7.88531L19.7755 71.6051L0.0394669 83.6368L11.4663 85.4489L0 86.9908L21.7327 100.954L4.54745 161.153L18.243 151.132L7.90109 164.587L68.1048 148.927L81.6114 172.407L83.4076 160.464L84.9214 172.446L98.2511 150.489L160.033 166.382L150.696 153.388L163.467 163.029L148.805 99.8959L169.699 87.8018L158.051 86.04L169.738 84.5536L149.194 72.0063L165.54 10.6254L152.326 20.176L162.186 7.19165L100.708 22.0189L87.5964 0.0396662L85.7814 11.7149ZM84.5335 53.9464L52.7137 85.7662L84.5335 117.586L116.353 85.7662L84.5335 53.9464Z" fill="white"/>
<path d="M259.45 47.764L238.426 100H228.634L207.61 47.764H216.322C217.258 47.764 218.014 47.992 218.59 48.448C219.19 48.88 219.634 49.444 219.922 50.14L231.226 80.236C231.658 81.364 232.078 82.6 232.486 83.944C232.918 85.264 233.314 86.656 233.674 88.12C233.986 86.656 234.322 85.264 234.682 83.944C235.066 82.6 235.474 81.364 235.906 80.236L247.138 50.14C247.378 49.54 247.798 49 248.398 48.52C249.022 48.016 249.79 47.764 250.702 47.764H259.45ZM280.917 100H270.045V47.764H280.917V100ZM291.357 32.896L279.729 43.192C279.465 43.408 279.213 43.588 278.973 43.732C278.733 43.852 278.481 43.948 278.217 44.02C277.977 44.092 277.701 44.14 277.389 44.164C277.101 44.188 276.777 44.2 276.417 44.2H269.217L276.417 34.444C276.681 34.084 276.933 33.808 277.173 33.616C277.437 33.4 277.713 33.244 278.001 33.148C278.313 33.028 278.661 32.956 279.045 32.932C279.429 32.908 279.873 32.896 280.377 32.896H291.357ZM342.35 47.764V100H336.77C335.93 100 335.222 99.868 334.646 99.604C334.07 99.316 333.506 98.836 332.954 98.164L306.926 65.044C306.998 65.884 307.046 66.712 307.07 67.528C307.118 68.344 307.142 69.1 307.142 69.796V100H297.602V47.764H303.29C303.746 47.764 304.13 47.788 304.442 47.836C304.778 47.86 305.078 47.944 305.342 48.088C305.606 48.208 305.858 48.376 306.098 48.592C306.338 48.808 306.602 49.096 306.89 49.456L333.098 82.72C333.002 81.808 332.93 80.932 332.882 80.092C332.834 79.228 332.81 78.412 332.81 77.644V47.764H342.35ZM394.617 87.148C395.217 87.148 395.721 87.364 396.129 87.796L400.413 92.368C398.301 95.056 395.673 97.096 392.529 98.488C389.409 99.88 385.689 100.576 381.369 100.576C377.457 100.576 373.941 99.916 370.821 98.596C367.701 97.252 365.049 95.392 362.865 93.016C360.681 90.64 359.001 87.82 357.825 84.556C356.649 81.292 356.061 77.728 356.061 73.864C356.061 71.272 356.337 68.812 356.889 66.484C357.465 64.132 358.293 61.972 359.373 60.004C360.453 58.036 361.749 56.26 363.261 54.676C364.797 53.092 366.525 51.748 368.445 50.644C370.365 49.516 372.453 48.664 374.709 48.088C376.989 47.488 379.413 47.188 381.981 47.188C383.901 47.188 385.713 47.356 387.417 47.692C389.145 48.028 390.753 48.496 392.241 49.096C393.729 49.696 395.097 50.428 396.345 51.292C397.617 52.132 398.757 53.056 399.765 54.064L396.129 59.032C395.913 59.344 395.637 59.62 395.301 59.86C394.965 60.1 394.509 60.22 393.933 60.22C393.357 60.22 392.769 60.016 392.169 59.608C391.593 59.2 390.873 58.744 390.009 58.24C389.169 57.736 388.101 57.28 386.805 56.872C385.533 56.464 383.913 56.26 381.945 56.26C379.761 56.26 377.757 56.656 375.933 57.448C374.109 58.24 372.537 59.392 371.217 60.904C369.921 62.392 368.913 64.228 368.193 66.412C367.473 68.596 367.113 71.08 367.113 73.864C367.113 76.672 367.497 79.18 368.265 81.388C369.057 83.572 370.125 85.42 371.469 86.932C372.837 88.444 374.421 89.596 376.221 90.388C378.045 91.156 379.989 91.54 382.053 91.54C383.277 91.54 384.381 91.48 385.365 91.36C386.373 91.24 387.297 91.036 388.137 90.748C389.001 90.46 389.805 90.088 390.549 89.632C391.317 89.176 392.085 88.6 392.853 87.904C393.117 87.688 393.393 87.508 393.681 87.364C393.969 87.22 394.281 87.148 394.617 87.148ZM433.654 91.36C435.406 91.36 436.978 91.072 438.37 90.496C439.762 89.896 440.938 89.056 441.898 87.976C442.858 86.896 443.59 85.588 444.094 84.052C444.598 82.516 444.85 80.788 444.85 78.868V47.764H455.65V78.868C455.65 82.036 455.134 84.952 454.102 87.616C453.094 90.256 451.642 92.536 449.746 94.456C447.85 96.376 445.546 97.876 442.834 98.956C440.122 100.036 437.062 100.576 433.654 100.576C430.246 100.576 427.174 100.036 424.438 98.956C421.726 97.876 419.422 96.376 417.526 94.456C415.63 92.536 414.166 90.256 413.134 87.616C412.126 84.952 411.622 82.036 411.622 78.868V47.764H422.422V78.868C422.422 80.788 422.674 82.516 423.178 84.052C423.682 85.588 424.414 86.896 425.374 87.976C426.334 89.056 427.51 89.896 428.902 90.496C430.294 91.072 431.878 91.36 433.654 91.36ZM502.674 91.216V100H471.678V47.764H482.478V91.216H502.674ZM563.91 73.864C563.91 77.68 563.262 81.22 561.966 84.484C560.694 87.748 558.882 90.568 556.53 92.944C554.202 95.32 551.394 97.192 548.106 98.56C544.818 99.904 541.17 100.576 537.162 100.576C533.154 100.576 529.506 99.904 526.218 98.56C522.93 97.192 520.11 95.32 517.758 92.944C515.406 90.568 513.582 87.748 512.286 84.484C511.014 81.22 510.378 77.68 510.378 73.864C510.378 70.048 511.014 66.52 512.286 63.28C513.582 60.016 515.406 57.196 517.758 54.82C520.11 52.444 522.93 50.584 526.218 49.24C529.506 47.872 533.154 47.188 537.162 47.188C541.17 47.188 544.818 47.872 548.106 49.24C551.394 50.584 554.202 52.456 556.53 54.856C558.882 57.232 560.694 60.052 561.966 63.316C563.262 66.556 563.91 70.072 563.91 73.864ZM552.858 73.864C552.858 71.128 552.498 68.68 551.778 66.52C551.058 64.336 550.014 62.488 548.646 60.976C547.302 59.44 545.658 58.276 543.714 57.484C541.794 56.668 539.61 56.26 537.162 56.26C534.714 56.26 532.518 56.668 530.574 57.484C528.63 58.276 526.974 59.44 525.606 60.976C524.262 62.488 523.23 64.336 522.51 66.52C521.79 68.68 521.43 71.128 521.43 73.864C521.43 76.624 521.79 79.096 522.51 81.28C523.23 83.44 524.262 85.276 525.606 86.788C526.974 88.3 528.63 89.464 530.574 90.28C532.518 91.072 534.714 91.468 537.162 91.468C539.61 91.468 541.794 91.072 543.714 90.28C545.658 89.464 547.302 88.3 548.646 86.788C550.014 85.276 551.058 83.44 551.778 81.28C552.498 79.096 552.858 76.624 552.858 73.864ZM605.854 57.772C605.518 58.324 605.17 58.732 604.81 58.996C604.474 59.236 604.03 59.356 603.478 59.356C602.95 59.356 602.374 59.176 601.75 58.816C601.15 58.432 600.442 58.024 599.626 57.592C598.81 57.16 597.874 56.764 596.818 56.404C595.762 56.02 594.526 55.828 593.11 55.828C590.614 55.828 588.742 56.392 587.494 57.52C586.246 58.624 585.622 60.076 585.622 61.876C585.622 63.028 585.958 63.988 586.63 64.756C587.326 65.5 588.226 66.148 589.33 66.7C590.458 67.252 591.73 67.744 593.146 68.176C594.562 68.608 596.014 69.088 597.502 69.616C598.99 70.12 600.442 70.72 601.858 71.416C603.274 72.112 604.534 72.988 605.638 74.044C606.766 75.1 607.666 76.396 608.338 77.932C609.034 79.444 609.382 81.292 609.382 83.476C609.382 85.852 608.962 88.084 608.122 90.172C607.306 92.236 606.118 94.048 604.558 95.608C602.998 97.144 601.066 98.356 598.762 99.244C596.482 100.132 593.89 100.576 590.986 100.576C589.33 100.576 587.674 100.408 586.018 100.072C584.386 99.736 582.802 99.268 581.266 98.668C579.754 98.068 578.326 97.348 576.982 96.508C575.638 95.668 574.462 94.732 573.454 93.7L576.622 88.588C576.886 88.204 577.234 87.892 577.666 87.652C578.098 87.388 578.554 87.256 579.034 87.256C579.682 87.256 580.366 87.496 581.086 87.976C581.806 88.456 582.634 88.984 583.57 89.56C584.506 90.136 585.586 90.664 586.81 91.144C588.058 91.624 589.546 91.864 591.274 91.864C593.794 91.864 595.738 91.288 597.106 90.136C598.498 88.984 599.194 87.268 599.194 84.988C599.194 83.668 598.846 82.6 598.15 81.784C597.478 80.968 596.59 80.284 595.486 79.732C594.382 79.18 593.122 78.712 591.706 78.328C590.29 77.92 588.838 77.476 587.35 76.996C585.862 76.516 584.41 75.94 582.994 75.268C581.578 74.596 580.318 73.708 579.214 72.604C578.11 71.5 577.21 70.132 576.514 68.5C575.842 66.868 575.506 64.84 575.506 62.416C575.506 60.472 575.89 58.588 576.658 56.764C577.426 54.94 578.554 53.32 580.042 51.904C581.53 50.488 583.354 49.348 585.514 48.484C587.698 47.62 590.194 47.188 593.002 47.188C596.146 47.188 599.05 47.68 601.714 48.664C604.402 49.624 606.67 50.968 608.518 52.696L605.854 57.772Z" fill="white"/>
<path d="M247.753 135.448C247.881 135.448 247.993 135.5 248.089 135.604L249.013 136.6C248.309 137.416 247.453 138.052 246.445 138.508C245.445 138.964 244.233 139.192 242.809 139.192C241.577 139.192 240.457 138.98 239.449 138.556C238.441 138.124 237.581 137.524 236.869 136.756C236.157 135.98 235.605 135.052 235.213 133.972C234.821 132.892 234.625 131.704 234.625 130.408C234.625 129.112 234.829 127.924 235.237 126.844C235.645 125.764 236.217 124.836 236.953 124.06C237.697 123.284 238.585 122.684 239.617 122.26C240.649 121.828 241.789 121.612 243.037 121.612C244.261 121.612 245.341 121.808 246.277 122.2C247.213 122.592 248.037 123.124 248.749 123.796L247.981 124.864C247.933 124.944 247.869 125.012 247.789 125.068C247.717 125.116 247.617 125.14 247.489 125.14C247.345 125.14 247.169 125.064 246.961 124.912C246.753 124.752 246.481 124.576 246.145 124.384C245.809 124.192 245.389 124.02 244.885 123.868C244.381 123.708 243.761 123.628 243.025 123.628C242.137 123.628 241.325 123.784 240.589 124.096C239.853 124.4 239.217 124.844 238.681 125.428C238.153 126.012 237.741 126.724 237.445 127.564C237.149 128.404 237.001 129.352 237.001 130.408C237.001 131.48 237.153 132.436 237.457 133.276C237.769 134.116 238.189 134.828 238.717 135.412C239.253 135.988 239.881 136.428 240.601 136.732C241.329 137.036 242.113 137.188 242.953 137.188C243.465 137.188 243.925 137.16 244.333 137.104C244.749 137.04 245.129 136.944 245.473 136.816C245.825 136.688 246.149 136.528 246.445 136.336C246.749 136.136 247.049 135.9 247.345 135.628C247.481 135.508 247.617 135.448 247.753 135.448ZM269.192 130.408C269.192 131.696 268.988 132.88 268.58 133.96C268.172 135.032 267.596 135.956 266.852 136.732C266.108 137.508 265.212 138.112 264.164 138.544C263.124 138.968 261.972 139.18 260.708 139.18C259.444 139.18 258.292 138.968 257.252 138.544C256.212 138.112 255.32 137.508 254.576 136.732C253.832 135.956 253.256 135.032 252.848 133.96C252.44 132.88 252.236 131.696 252.236 130.408C252.236 129.12 252.44 127.94 252.848 126.868C253.256 125.788 253.832 124.86 254.576 124.084C255.32 123.3 256.212 122.692 257.252 122.26C258.292 121.828 259.444 121.612 260.708 121.612C261.972 121.612 263.124 121.828 264.164 122.26C265.212 122.692 266.108 123.3 266.852 124.084C267.596 124.86 268.172 125.788 268.58 126.868C268.988 127.94 269.192 129.12 269.192 130.408ZM266.804 130.408C266.804 129.352 266.66 128.404 266.372 127.564C266.084 126.724 265.676 126.016 265.148 125.44C264.62 124.856 263.98 124.408 263.228 124.096C262.476 123.784 261.636 123.628 260.708 123.628C259.788 123.628 258.952 123.784 258.2 124.096C257.448 124.408 256.804 124.856 256.268 125.44C255.74 126.016 255.332 126.724 255.044 127.564C254.756 128.404 254.612 129.352 254.612 130.408C254.612 131.464 254.756 132.412 255.044 133.252C255.332 134.084 255.74 134.792 256.268 135.376C256.804 135.952 257.448 136.396 258.2 136.708C258.952 137.012 259.788 137.164 260.708 137.164C261.636 137.164 262.476 137.012 263.228 136.708C263.98 136.396 264.62 135.952 265.148 135.376C265.676 134.792 266.084 134.084 266.372 133.252C266.66 132.412 266.804 131.464 266.804 130.408ZM288.374 121.804V139H287.21C287.026 139 286.87 138.968 286.742 138.904C286.622 138.84 286.502 138.732 286.382 138.58L276.434 125.62C276.45 125.82 276.462 126.016 276.47 126.208C276.478 126.4 276.482 126.58 276.482 126.748V139H274.442V121.804H275.642C275.746 121.804 275.834 121.812 275.906 121.828C275.978 121.836 276.042 121.856 276.098 121.888C276.154 121.912 276.21 121.952 276.266 122.008C276.322 122.056 276.382 122.12 276.446 122.2L286.394 135.148C286.378 134.94 286.362 134.74 286.346 134.548C286.338 134.348 286.334 134.16 286.334 133.984V121.804H288.374ZM303.487 124.492C303.415 124.612 303.335 124.704 303.247 124.768C303.167 124.824 303.067 124.852 302.947 124.852C302.811 124.852 302.651 124.784 302.467 124.648C302.283 124.512 302.051 124.364 301.771 124.204C301.499 124.036 301.167 123.884 300.775 123.748C300.391 123.612 299.923 123.544 299.371 123.544C298.851 123.544 298.391 123.616 297.991 123.76C297.599 123.896 297.267 124.084 296.995 124.324C296.731 124.564 296.531 124.848 296.395 125.176C296.259 125.496 296.191 125.844 296.191 126.22C296.191 126.7 296.307 127.1 296.539 127.42C296.779 127.732 297.091 128 297.475 128.224C297.867 128.448 298.307 128.644 298.795 128.812C299.291 128.972 299.795 129.14 300.307 129.316C300.827 129.492 301.331 129.692 301.819 129.916C302.315 130.132 302.755 130.408 303.139 130.744C303.531 131.08 303.843 131.492 304.075 131.98C304.315 132.468 304.435 133.068 304.435 133.78C304.435 134.532 304.307 135.24 304.051 135.904C303.795 136.56 303.419 137.132 302.923 137.62C302.435 138.108 301.831 138.492 301.111 138.772C300.399 139.052 299.587 139.192 298.675 139.192C297.555 139.192 296.539 138.992 295.627 138.592C294.715 138.184 293.935 137.636 293.287 136.948L293.959 135.844C294.023 135.756 294.099 135.684 294.187 135.628C294.283 135.564 294.387 135.532 294.499 135.532C294.603 135.532 294.719 135.576 294.847 135.664C294.983 135.744 295.135 135.848 295.303 135.976C295.471 136.104 295.663 136.244 295.879 136.396C296.095 136.548 296.339 136.688 296.611 136.816C296.891 136.944 297.207 137.052 297.559 137.14C297.911 137.22 298.307 137.26 298.747 137.26C299.299 137.26 299.791 137.184 300.223 137.032C300.655 136.88 301.019 136.668 301.315 136.396C301.619 136.116 301.851 135.784 302.011 135.4C302.171 135.016 302.251 134.588 302.251 134.116C302.251 133.596 302.131 133.172 301.891 132.844C301.659 132.508 301.351 132.228 300.967 132.004C300.583 131.78 300.143 131.592 299.647 131.44C299.151 131.28 298.647 131.12 298.135 130.96C297.623 130.792 297.119 130.6 296.623 130.384C296.127 130.168 295.687 129.888 295.303 129.544C294.919 129.2 294.607 128.772 294.367 128.26C294.135 127.74 294.019 127.1 294.019 126.34C294.019 125.732 294.135 125.144 294.367 124.576C294.607 124.008 294.951 123.504 295.399 123.064C295.855 122.624 296.411 122.272 297.067 122.008C297.731 121.744 298.491 121.612 299.347 121.612C300.307 121.612 301.179 121.764 301.963 122.068C302.755 122.372 303.451 122.812 304.051 123.388L303.487 124.492ZM316.278 137.152C316.99 137.152 317.626 137.032 318.186 136.792C318.746 136.552 319.218 136.216 319.602 135.784C319.994 135.352 320.29 134.836 320.49 134.236C320.698 133.636 320.802 132.976 320.802 132.256V121.804H323.118V132.256C323.118 133.248 322.958 134.168 322.638 135.016C322.326 135.864 321.874 136.6 321.282 137.224C320.698 137.84 319.982 138.324 319.134 138.676C318.286 139.028 317.334 139.204 316.278 139.204C315.222 139.204 314.27 139.028 313.422 138.676C312.574 138.324 311.854 137.84 311.262 137.224C310.67 136.6 310.214 135.864 309.894 135.016C309.582 134.168 309.426 133.248 309.426 132.256V121.804H311.742V132.244C311.742 132.964 311.842 133.624 312.042 134.224C312.25 134.824 312.546 135.34 312.93 135.772C313.322 136.204 313.798 136.544 314.358 136.792C314.926 137.032 315.566 137.152 316.278 137.152ZM338.966 137.044V139H329.21V121.804H331.526V137.044H338.966ZM352.836 123.76H347.268V139H344.952V123.76H339.372V121.804H352.836V123.76ZM372.423 130.408C372.423 131.696 372.219 132.88 371.811 133.96C371.403 135.032 370.827 135.956 370.083 136.732C369.339 137.508 368.443 138.112 367.395 138.544C366.355 138.968 365.203 139.18 363.939 139.18C362.675 139.18 361.523 138.968 360.483 138.544C359.443 138.112 358.551 137.508 357.807 136.732C357.063 135.956 356.487 135.032 356.079 133.96C355.671 132.88 355.467 131.696 355.467 130.408C355.467 129.12 355.671 127.94 356.079 126.868C356.487 125.788 357.063 124.86 357.807 124.084C358.551 123.3 359.443 122.692 360.483 122.26C361.523 121.828 362.675 121.612 363.939 121.612C365.203 121.612 366.355 121.828 367.395 122.26C368.443 122.692 369.339 123.3 370.083 124.084C370.827 124.86 371.403 125.788 371.811 126.868C372.219 127.94 372.423 129.12 372.423 130.408ZM370.035 130.408C370.035 129.352 369.891 128.404 369.603 127.564C369.315 126.724 368.907 126.016 368.379 125.44C367.851 124.856 367.211 124.408 366.459 124.096C365.707 123.784 364.867 123.628 363.939 123.628C363.019 123.628 362.183 123.784 361.431 124.096C360.679 124.408 360.035 124.856 359.499 125.44C358.971 126.016 358.563 126.724 358.275 127.564C357.987 128.404 357.843 129.352 357.843 130.408C357.843 131.464 357.987 132.412 358.275 133.252C358.563 134.084 358.971 134.792 359.499 135.376C360.035 135.952 360.679 136.396 361.431 136.708C362.183 137.012 363.019 137.164 363.939 137.164C364.867 137.164 365.707 137.012 366.459 136.708C367.211 136.396 367.851 135.952 368.379 135.376C368.907 134.792 369.315 134.084 369.603 133.252C369.891 132.412 370.035 131.464 370.035 130.408ZM382.437 130.132C383.109 130.132 383.701 130.052 384.213 129.892C384.733 129.724 385.165 129.492 385.509 129.196C385.861 128.892 386.125 128.532 386.301 128.116C386.477 127.7 386.565 127.24 386.565 126.736C386.565 125.712 386.229 124.94 385.557 124.42C384.885 123.9 383.877 123.64 382.533 123.64H379.989V130.132H382.437ZM390.381 139H388.317C387.893 139 387.581 138.836 387.381 138.508L382.917 132.364C382.781 132.172 382.633 132.036 382.473 131.956C382.321 131.868 382.081 131.824 381.753 131.824H379.989V139H377.673V121.804H382.533C383.621 121.804 384.561 121.916 385.353 122.14C386.145 122.356 386.797 122.672 387.309 123.088C387.829 123.504 388.213 124.008 388.461 124.6C388.709 125.184 388.833 125.84 388.833 126.568C388.833 127.176 388.737 127.744 388.545 128.272C388.353 128.8 388.073 129.276 387.705 129.7C387.345 130.116 386.901 130.472 386.373 130.768C385.853 131.064 385.261 131.288 384.597 131.44C384.893 131.608 385.149 131.852 385.365 132.172L390.381 139ZM396.968 139H394.64V121.804H396.968V139ZM400.376 116.776L396.464 120.208C396.344 120.32 396.228 120.388 396.116 120.412C396.004 120.436 395.868 120.448 395.708 120.448H394.172L396.944 117.16C397.08 116.984 397.216 116.876 397.352 116.836C397.496 116.796 397.7 116.776 397.964 116.776H400.376ZM412.419 132.616L409.719 125.62C409.639 125.412 409.555 125.172 409.467 124.9C409.379 124.62 409.295 124.324 409.215 124.012C409.047 124.66 408.875 125.2 408.699 125.632L405.999 132.616H412.419ZM417.267 139H415.467C415.259 139 415.091 138.948 414.963 138.844C414.835 138.74 414.739 138.608 414.675 138.448L413.067 134.296H405.351L403.743 138.448C403.695 138.592 403.603 138.72 403.467 138.832C403.331 138.944 403.163 139 402.963 139H401.163L408.039 121.804H410.391L417.267 139ZM439.321 137.104L439.309 139H428.713V121.804H439.309V123.7H431.041V129.412H437.737V131.236H431.041V137.104H439.321ZM462.376 121.804V139H460.336V126.364C460.336 126.196 460.34 126.016 460.348 125.824C460.364 125.632 460.38 125.436 460.396 125.236L454.492 135.988C454.308 136.348 454.028 136.528 453.652 136.528H453.316C452.94 136.528 452.66 136.348 452.476 135.988L446.452 125.188C446.5 125.612 446.524 126.004 446.524 126.364V139H444.484V121.804H446.2C446.408 121.804 446.568 121.824 446.68 121.864C446.792 121.904 446.9 122.016 447.004 122.2L452.944 132.784C453.04 132.976 453.132 133.176 453.22 133.384C453.316 133.592 453.404 133.804 453.484 134.02C453.564 133.804 453.648 133.592 453.736 133.384C453.824 133.168 453.92 132.964 454.024 132.772L459.856 122.2C459.952 122.016 460.056 121.904 460.168 121.864C460.288 121.824 460.452 121.804 460.66 121.804H462.376ZM473.769 130.72C474.433 130.72 475.017 130.632 475.521 130.456C476.033 130.28 476.461 130.036 476.805 129.724C477.157 129.404 477.421 129.024 477.597 128.584C477.773 128.144 477.861 127.66 477.861 127.132C477.861 126.036 477.521 125.18 476.841 124.564C476.169 123.948 475.145 123.64 473.769 123.64H471.009V130.72H473.769ZM473.769 121.804C474.857 121.804 475.801 121.932 476.601 122.188C477.409 122.436 478.077 122.792 478.605 123.256C479.133 123.72 479.525 124.28 479.781 124.936C480.045 125.592 480.177 126.324 480.177 127.132C480.177 127.932 480.037 128.664 479.757 129.328C479.477 129.992 479.065 130.564 478.521 131.044C477.985 131.524 477.317 131.9 476.517 132.172C475.725 132.436 474.809 132.568 473.769 132.568H471.009V139H468.693V121.804H473.769ZM495.635 137.104L495.623 139H485.027V121.804H495.623V123.7H487.355V129.412H494.051V131.236H487.355V137.104H495.635ZM509.595 124.492C509.523 124.612 509.443 124.704 509.355 124.768C509.275 124.824 509.175 124.852 509.055 124.852C508.919 124.852 508.759 124.784 508.575 124.648C508.391 124.512 508.159 124.364 507.879 124.204C507.607 124.036 507.275 123.884 506.883 123.748C506.499 123.612 506.031 123.544 505.479 123.544C504.959 123.544 504.499 123.616 504.099 123.76C503.707 123.896 503.375 124.084 503.103 124.324C502.839 124.564 502.639 124.848 502.503 125.176C502.367 125.496 502.299 125.844 502.299 126.22C502.299 126.7 502.415 127.1 502.647 127.42C502.887 127.732 503.199 128 503.583 128.224C503.975 128.448 504.415 128.644 504.903 128.812C505.399 128.972 505.903 129.14 506.415 129.316C506.935 129.492 507.439 129.692 507.927 129.916C508.423 130.132 508.863 130.408 509.247 130.744C509.639 131.08 509.951 131.492 510.183 131.98C510.423 132.468 510.543 133.068 510.543 133.78C510.543 134.532 510.415 135.24 510.159 135.904C509.903 136.56 509.527 137.132 509.031 137.62C508.543 138.108 507.939 138.492 507.219 138.772C506.507 139.052 505.695 139.192 504.783 139.192C503.663 139.192 502.647 138.992 501.735 138.592C500.823 138.184 500.043 137.636 499.395 136.948L500.067 135.844C500.131 135.756 500.207 135.684 500.295 135.628C500.391 135.564 500.495 135.532 500.607 135.532C500.711 135.532 500.827 135.576 500.955 135.664C501.091 135.744 501.243 135.848 501.411 135.976C501.579 136.104 501.771 136.244 501.987 136.396C502.203 136.548 502.447 136.688 502.719 136.816C502.999 136.944 503.315 137.052 503.667 137.14C504.019 137.22 504.415 137.26 504.855 137.26C505.407 137.26 505.899 137.184 506.331 137.032C506.763 136.88 507.127 136.668 507.423 136.396C507.727 136.116 507.959 135.784 508.119 135.4C508.279 135.016 508.359 134.588 508.359 134.116C508.359 133.596 508.239 133.172 507.999 132.844C507.767 132.508 507.459 132.228 507.075 132.004C506.691 131.78 506.251 131.592 505.755 131.44C505.259 131.28 504.755 131.12 504.243 130.96C503.731 130.792 503.227 130.6 502.731 130.384C502.235 130.168 501.795 129.888 501.411 129.544C501.027 129.2 500.715 128.772 500.475 128.26C500.243 127.74 500.127 127.1 500.127 126.34C500.127 125.732 500.243 125.144 500.475 124.576C500.715 124.008 501.059 123.504 501.507 123.064C501.963 122.624 502.519 122.272 503.175 122.008C503.839 121.744 504.599 121.612 505.455 121.612C506.415 121.612 507.287 121.764 508.071 122.068C508.863 122.372 509.559 122.812 510.159 123.388L509.595 124.492ZM524.578 132.616L521.878 125.62C521.798 125.412 521.714 125.172 521.626 124.9C521.538 124.62 521.454 124.324 521.374 124.012C521.206 124.66 521.034 125.2 520.858 125.632L518.158 132.616H524.578ZM529.426 139H527.626C527.418 139 527.25 138.948 527.122 138.844C526.994 138.74 526.898 138.608 526.834 138.448L525.226 134.296H517.51L515.902 138.448C515.854 138.592 515.762 138.72 515.626 138.832C515.49 138.944 515.322 139 515.122 139H513.322L520.198 121.804H522.55L529.426 139ZM538.372 130.132C539.044 130.132 539.636 130.052 540.148 129.892C540.668 129.724 541.1 129.492 541.444 129.196C541.796 128.892 542.06 128.532 542.236 128.116C542.412 127.7 542.5 127.24 542.5 126.736C542.5 125.712 542.164 124.94 541.492 124.42C540.82 123.9 539.812 123.64 538.468 123.64H535.924V130.132H538.372ZM546.316 139H544.252C543.828 139 543.516 138.836 543.316 138.508L538.852 132.364C538.716 132.172 538.568 132.036 538.408 131.956C538.256 131.868 538.016 131.824 537.688 131.824H535.924V139H533.608V121.804H538.468C539.556 121.804 540.496 121.916 541.288 122.14C542.08 122.356 542.732 122.672 543.244 123.088C543.764 123.504 544.148 124.008 544.396 124.6C544.644 125.184 544.768 125.84 544.768 126.568C544.768 127.176 544.672 127.744 544.48 128.272C544.288 128.8 544.008 129.276 543.64 129.7C543.28 130.116 542.836 130.472 542.308 130.768C541.788 131.064 541.196 131.288 540.532 131.44C540.828 131.608 541.084 131.852 541.3 132.172L546.316 139ZM552.903 139H550.575V121.804H552.903V139ZM568.353 132.616L565.653 125.62C565.573 125.412 565.489 125.172 565.401 124.9C565.313 124.62 565.229 124.324 565.149 124.012C564.981 124.66 564.809 125.2 564.633 125.632L561.933 132.616H568.353ZM573.201 139H571.401C571.193 139 571.025 138.948 570.897 138.844C570.769 138.74 570.673 138.608 570.609 138.448L569.001 134.296H561.285L559.677 138.448C559.629 138.592 559.537 138.72 559.401 138.832C559.265 138.944 559.097 139 558.897 139H557.097L563.973 121.804H566.325L573.201 139ZM587.139 137.044V139H577.383V121.804H579.699V137.044H587.139Z" fill="white"/>
</svg>
