<svg width="108" height="108" viewBox="0 0 108 108" fill="none" xmlns="http://www.w3.org/2000/svg">
<path d="M15.6094 43.875H13.5C12.6049 43.875 11.7464 44.2306 11.1135 44.8635C10.4806 45.4965 10.125 46.3549 10.125 47.25V50.625C10.125 51.5201 10.4806 52.3785 11.1135 53.0115C11.7464 53.6444 12.6049 54 13.5 54H16.8623C16.833 63.1026 15.704 72.1682 13.5 81H40.5C38.296 72.1682 37.167 63.1026 37.1377 54H40.5C41.3951 54 42.2535 53.6444 42.8865 53.0115C43.5194 52.3785 43.875 51.5201 43.875 50.625V47.25C43.875 46.3549 43.5194 45.4965 42.8865 44.8635C42.2535 44.2306 41.3951 43.875 40.5 43.875H38.3906L45.5393 24.8105C45.731 24.2995 45.7959 23.7497 45.7285 23.2082C45.6611 22.6666 45.4634 22.1495 45.1523 21.7011C44.8412 21.2527 44.426 20.8865 43.9424 20.6337C43.4587 20.381 42.921 20.2493 42.3752 20.25H30.375V13.5H35.4375C35.8851 13.5 36.3143 13.3222 36.6307 13.0057C36.9472 12.6893 37.125 12.2601 37.125 11.8125V8.4375C37.125 7.98995 36.9472 7.56073 36.6307 7.24426C36.3143 6.92779 35.8851 6.75 35.4375 6.75H30.375V1.6875C30.375 1.23995 30.1972 0.810725 29.8807 0.494257C29.5643 0.17779 29.1351 0 28.6875 0L25.3125 0C24.8649 0 24.4357 0.17779 24.1193 0.494257C23.8028 0.810725 23.625 1.23995 23.625 1.6875V6.75H18.5625C18.1149 6.75 17.6857 6.92779 17.3693 7.24426C17.0528 7.56073 16.875 7.98995 16.875 8.4375V11.8125C16.875 12.2601 17.0528 12.6893 17.3693 13.0057C17.6857 13.3222 18.1149 13.5 18.5625 13.5H23.625V20.25H11.6205C11.0748 20.2493 10.5371 20.381 10.0534 20.6337C9.56973 20.8865 9.15456 21.2527 8.84348 21.7011C8.53239 22.1495 8.33468 22.6666 8.26727 23.2082C8.19987 23.7497 8.2648 24.2995 8.45648 24.8105L15.6094 43.875ZM52.1353 96.9426L47.25 94.5V91.125C47.25 90.2299 46.8944 89.3714 46.2615 88.7385C45.6285 88.1056 44.7701 87.75 43.875 87.75H10.125C9.22989 87.75 8.37145 88.1056 7.73851 88.7385C7.10558 89.3714 6.75 90.2299 6.75 91.125V94.5L1.8668 96.9426C1.306 97.2228 0.83431 97.6536 0.504586 98.1867C0.174862 98.7199 0.000138802 99.3343 0 99.9612L0 104.625C0 105.52 0.355579 106.379 0.988515 107.011C1.62145 107.644 2.47989 108 3.375 108H50.625C51.5201 108 52.3785 107.644 53.0115 107.011C53.6444 106.379 54 105.52 54 104.625V99.9612C54.0001 99.3345 53.8256 98.7202 53.4963 98.1871C53.167 97.654 52.6957 97.2231 52.1353 96.9426ZM71.704 63.6609L71.01 81H97.74L97.046 63.6588L102.235 59.2734C102.985 58.6391 103.587 57.8487 104 56.9576C104.413 56.0665 104.626 55.096 104.625 54.1139V41.7656C104.625 41.43 104.492 41.108 104.254 40.8707C104.017 40.6333 103.695 40.5 103.359 40.5H97.7948C97.4592 40.5 97.1373 40.6333 96.8999 40.8707C96.6626 41.108 96.5292 41.43 96.5292 41.7656V47.25H91.317V41.7656C91.317 41.43 91.1836 41.108 90.9463 40.8707C90.7089 40.6333 90.387 40.5 90.0513 40.5H78.7008C78.3651 40.5 78.0432 40.6333 77.8058 40.8707C77.5685 41.108 77.4352 41.43 77.4352 41.7656V47.25H72.2229V41.7656C72.2229 41.43 72.0895 41.108 71.8522 40.8707C71.6148 40.6333 71.2929 40.5 70.9573 40.5H65.3906C65.055 40.5 64.733 40.6333 64.4957 40.8707C64.2583 41.108 64.125 41.43 64.125 41.7656V54.1266C64.1266 55.107 64.3419 56.0753 64.7557 56.9642C65.1695 57.853 65.772 58.641 66.5212 59.2734L71.704 63.6609ZM81 64.125C81 63.2299 81.3556 62.3714 81.9885 61.7385C82.6214 61.1056 83.4799 60.75 84.375 60.75C85.2701 60.75 86.1286 61.1056 86.7615 61.7385C87.3944 62.3714 87.75 63.2299 87.75 64.125V70.875H81V64.125ZM106.135 96.9426L101.25 94.5V91.125C101.25 90.2299 100.894 89.3714 100.261 88.7385C99.6286 88.1056 98.7701 87.75 97.875 87.75H70.875C69.9799 87.75 69.1214 88.1056 68.4885 88.7385C67.8556 89.3714 67.5 90.2299 67.5 91.125V94.5L62.6168 96.9426C62.056 97.2228 61.5843 97.6536 61.2546 98.1867C60.9249 98.7199 60.7501 99.3343 60.75 99.9612V104.625C60.75 105.52 61.1056 106.379 61.7385 107.011C62.3714 107.644 63.2299 108 64.125 108H104.625C105.52 108 106.379 107.644 107.011 107.011C107.644 106.379 108 105.52 108 104.625V99.9612C108 99.3345 107.826 98.7202 107.496 98.1871C107.167 97.654 106.696 97.2231 106.135 96.9426Z" fill="#294165"/>
</svg>
