<svg width="25" height="26" viewBox="0 0 25 26" fill="none" xmlns="http://www.w3.org/2000/svg">
<path d="M24.287 18.3725L18.8182 15.935C18.5846 15.8314 18.3249 15.8096 18.0783 15.8728C17.8318 15.936 17.6116 16.0808 17.451 16.2854L15.0291 19.3628C11.2281 17.499 8.16919 14.3177 6.37706 10.3647L9.3361 7.84589C9.53321 7.67916 9.67272 7.45018 9.73352 7.19362C9.79431 6.93705 9.77307 6.66688 9.67302 6.42399L7.32923 0.736389C7.21942 0.47456 7.0252 0.260786 6.78007 0.131928C6.53494 0.00306986 6.25426 -0.0327954 5.98643 0.0305166L0.908219 1.24929C0.649996 1.3113 0.419609 1.46251 0.25466 1.67824C0.0897111 1.89396 -5.94839e-05 2.16146 2.95718e-08 2.43708C2.95718e-08 15.4627 10.1515 26 22.6566 26C22.9217 26.0002 23.1791 25.9069 23.3866 25.7353C23.5941 25.5638 23.7396 25.3241 23.7992 25.0555L24.9711 19.7741C25.0316 19.4942 24.9964 19.2011 24.8715 18.9453C24.7467 18.6895 24.54 18.487 24.287 18.3725Z" fill="#DDDDDD"/>
</svg>
