<svg width="30" height="23" viewBox="0 0 30 23" fill="none" xmlns="http://www.w3.org/2000/svg">
<path d="M22.876 8.51517H15.751V10.999C15.751 12.7599 14.237 14.1926 12.376 14.1926C10.5151 14.1926 9.00105 12.7599 9.00105 10.999V5.60549L5.95887 7.33533C5.05418 7.84541 4.50106 8.77243 4.50106 9.76598V11.864L0.751068 13.9132C0.0338816 14.3035 -0.214555 15.1728 0.202631 15.8515L3.95262 21.9991C4.36512 22.6777 5.28387 22.9083 6.00106 22.518L10.8479 19.87H17.251C18.9057 19.87 20.251 18.597 20.251 17.0313H21.001C21.8307 17.0313 22.501 16.397 22.501 15.612V12.7732H22.876C23.4995 12.7732 24.001 12.2986 24.001 11.7087V9.57969C24.001 8.98977 23.4995 8.51517 22.876 8.51517ZM29.7995 6.8563L26.0495 0.708718C25.637 0.0300889 24.7182 -0.200556 24.001 0.189766L19.1542 2.83775H14.3635C13.801 2.83775 13.2526 2.98856 12.7745 3.26799L11.2042 4.19501C10.7635 4.45227 10.501 4.90912 10.501 5.39703V10.999C10.501 11.9793 11.3401 12.7732 12.376 12.7732C13.412 12.7732 14.251 11.9793 14.251 10.999V7.09582H22.876C24.3245 7.09582 25.501 8.20912 25.501 9.57969V10.8438L29.251 8.79461C29.9682 8.39985 30.212 7.53493 29.7995 6.8563Z" fill="#294165"/>
</svg>
