<svg width="210" height="29" viewBox="0 0 210 29" fill="none" xmlns="http://www.w3.org/2000/svg">
<path d="M7.29644 15.432C7.91244 15.432 8.44444 15.34 8.89244 15.156C9.34044 14.972 9.70844 14.716 9.99644 14.388C10.2924 14.052 10.5084 13.656 10.6444 13.2C10.7884 12.744 10.8604 12.24 10.8604 11.688C10.8604 11.296 10.8044 10.936 10.6924 10.608C10.5804 10.28 10.4084 10.004 10.1764 9.78C9.94444 9.548 9.65244 9.368 9.30044 9.24C8.95644 9.112 8.54444 9.048 8.06444 9.048H5.90444L5.12444 15.432H7.29644ZM8.36444 6.648C9.34844 6.648 10.1924 6.768 10.8964 7.008C11.6084 7.24 12.1924 7.568 12.6484 7.992C13.1044 8.416 13.4404 8.92 13.6564 9.504C13.8804 10.08 13.9924 10.716 13.9924 11.412C13.9924 12.34 13.8444 13.2 13.5484 13.992C13.2604 14.776 12.8244 15.456 12.2404 16.032C11.6564 16.6 10.9244 17.048 10.0444 17.376C9.17244 17.696 8.15244 17.856 6.98444 17.856H4.82444L4.06844 24H0.972439L3.08444 6.648H8.36444ZM22.8378 14.94C23.4618 14.94 23.9978 14.852 24.4458 14.676C24.9018 14.492 25.2778 14.244 25.5738 13.932C25.8698 13.612 26.0898 13.24 26.2338 12.816C26.3778 12.392 26.4498 11.936 26.4498 11.448C26.4498 10.696 26.2138 10.108 25.7418 9.684C25.2778 9.26 24.5618 9.048 23.5938 9.048H21.7698L21.0498 14.94H22.8378ZM23.8818 6.648C24.8818 6.648 25.7378 6.756 26.4498 6.972C27.1698 7.18 27.7578 7.476 28.2138 7.86C28.6698 8.236 29.0058 8.688 29.2218 9.216C29.4378 9.744 29.5458 10.324 29.5458 10.956C29.5458 11.62 29.4498 12.248 29.2578 12.84C29.0738 13.432 28.8058 13.968 28.4538 14.448C28.1018 14.928 27.6698 15.348 27.1578 15.708C26.6458 16.068 26.0658 16.348 25.4178 16.548C25.6018 16.66 25.7658 16.796 25.9098 16.956C26.0618 17.116 26.1938 17.308 26.3058 17.532L29.4018 24H26.6058C26.0698 24 25.7138 23.792 25.5378 23.376L22.9938 17.748C22.8978 17.54 22.7778 17.392 22.6338 17.304C22.4978 17.208 22.2818 17.16 21.9858 17.16H20.7738L19.9338 24H16.8378L18.9498 6.648H23.8818ZM38.1164 9.132L37.5044 14.064H42.9884L42.6884 16.452H37.2044L36.5804 21.516H43.5884L43.2764 24H33.1484L35.2844 6.648H45.4004L45.0884 9.132H38.1164ZM58.3036 9.768C58.1916 9.928 58.0796 10.048 57.9676 10.128C57.8636 10.2 57.7316 10.236 57.5716 10.236C57.4116 10.236 57.2476 10.172 57.0796 10.044C56.9116 9.916 56.7116 9.776 56.4796 9.624C56.2476 9.464 55.9716 9.32 55.6516 9.192C55.3316 9.064 54.9476 9 54.4996 9C54.0676 9 53.6836 9.064 53.3476 9.192C53.0116 9.32 52.7276 9.496 52.4956 9.72C52.2716 9.944 52.0996 10.208 51.9796 10.512C51.8676 10.816 51.8116 11.144 51.8116 11.496C51.8116 11.864 51.9036 12.172 52.0876 12.42C52.2796 12.66 52.5276 12.872 52.8316 13.056C53.1356 13.24 53.4836 13.404 53.8756 13.548C54.2676 13.692 54.6636 13.844 55.0636 14.004C55.4716 14.164 55.8716 14.348 56.2636 14.556C56.6556 14.764 57.0036 15.02 57.3076 15.324C57.6116 15.628 57.8556 15.996 58.0396 16.428C58.2316 16.852 58.3276 17.368 58.3276 17.976C58.3276 18.824 58.1796 19.624 57.8836 20.376C57.5876 21.128 57.1676 21.788 56.6236 22.356C56.0796 22.916 55.4156 23.364 54.6316 23.7C53.8476 24.028 52.9716 24.192 52.0036 24.192C51.4996 24.192 51.0036 24.136 50.5156 24.024C50.0276 23.92 49.5676 23.768 49.1356 23.568C48.7036 23.368 48.3036 23.128 47.9356 22.848C47.5676 22.568 47.2476 22.256 46.9756 21.912L48.0796 20.424C48.1676 20.312 48.2796 20.22 48.4156 20.148C48.5516 20.076 48.6876 20.04 48.8236 20.04C48.9516 20.04 49.0756 20.08 49.1956 20.16C49.3236 20.24 49.4596 20.34 49.6036 20.46C49.7556 20.572 49.9156 20.7 50.0836 20.844C50.2596 20.98 50.4556 21.108 50.6716 21.228C50.8956 21.34 51.1476 21.436 51.4276 21.516C51.7156 21.596 52.0396 21.636 52.3996 21.636C53.3116 21.636 54.0236 21.38 54.5356 20.868C55.0476 20.356 55.3036 19.648 55.3036 18.744C55.3036 18.344 55.2116 18.016 55.0276 17.76C54.8436 17.504 54.5996 17.288 54.2956 17.112C53.9916 16.936 53.6436 16.784 53.2516 16.656C52.8676 16.52 52.4756 16.38 52.0756 16.236C51.6756 16.084 51.2796 15.912 50.8876 15.72C50.5036 15.52 50.1596 15.268 49.8556 14.964C49.5516 14.652 49.3076 14.272 49.1236 13.824C48.9396 13.376 48.8476 12.824 48.8476 12.168C48.8476 11.424 48.9836 10.708 49.2556 10.02C49.5356 9.332 49.9316 8.728 50.4436 8.208C50.9636 7.68 51.5876 7.26 52.3156 6.948C53.0516 6.628 53.8796 6.468 54.7996 6.468C55.2716 6.468 55.7236 6.516 56.1556 6.612C56.5956 6.708 57.0036 6.844 57.3796 7.02C57.7556 7.196 58.0996 7.408 58.4116 7.656C58.7316 7.896 59.0076 8.164 59.2396 8.46L58.3036 9.768ZM65.3626 24H62.2306L64.3426 6.648H67.4746L65.3626 24ZM86.332 14.16C86.332 15.6 86.1 16.924 85.636 18.132C85.172 19.34 84.524 20.38 83.692 21.252C82.868 22.116 81.888 22.792 80.752 23.28C79.616 23.76 78.376 24 77.032 24H70.924L73.06 6.648H79.18C80.284 6.648 81.276 6.836 82.156 7.212C83.044 7.588 83.796 8.108 84.412 8.772C85.028 9.436 85.5 10.228 85.828 11.148C86.164 12.068 86.332 13.072 86.332 14.16ZM83.14 14.232C83.14 13.456 83.044 12.752 82.852 12.12C82.66 11.488 82.38 10.952 82.012 10.512C81.652 10.064 81.208 9.72 80.68 9.48C80.152 9.24 79.548 9.12 78.868 9.12H75.892L74.356 21.516H77.344C78.216 21.516 79.008 21.348 79.72 21.012C80.432 20.676 81.04 20.196 81.544 19.572C82.056 18.94 82.448 18.176 82.72 17.28C83 16.376 83.14 15.36 83.14 14.232ZM94.8042 9.132L94.1922 14.064H99.6762L99.3762 16.452H93.8922L93.2682 21.516H100.276L99.9642 24H89.8362L91.9722 6.648H102.088L101.776 9.132H94.8042ZM120.331 6.648L118.195 24H116.587C116.347 24 116.147 23.96 115.987 23.88C115.835 23.792 115.691 23.652 115.555 23.46L108.835 11.604C108.819 11.804 108.803 11.996 108.787 12.18C108.771 12.356 108.755 12.524 108.739 12.684L107.371 24H104.623L106.759 6.648H108.391C108.527 6.648 108.639 6.656 108.727 6.672C108.823 6.68 108.907 6.704 108.979 6.744C109.051 6.776 109.115 6.824 109.171 6.888C109.227 6.952 109.287 7.04 109.351 7.152L116.107 18.996C116.123 18.756 116.139 18.528 116.155 18.312C116.179 18.088 116.203 17.884 116.227 17.7L117.583 6.648H120.331ZM131.066 21.552C131.554 21.552 131.978 21.516 132.338 21.444C132.698 21.364 133.014 21.264 133.286 21.144C133.558 21.024 133.786 20.9 133.97 20.772C134.162 20.636 134.33 20.508 134.474 20.388C134.618 20.268 134.746 20.172 134.858 20.1C134.97 20.02 135.082 19.98 135.194 19.98C135.298 19.98 135.382 20 135.446 20.04C135.51 20.08 135.562 20.12 135.602 20.16L136.694 21.516C135.942 22.38 135.058 23.044 134.042 23.508C133.026 23.964 131.858 24.192 130.538 24.192C129.466 24.192 128.514 24.004 127.682 23.628C126.85 23.244 126.146 22.716 125.57 22.044C125.002 21.372 124.566 20.576 124.262 19.656C123.966 18.736 123.818 17.732 123.818 16.644C123.818 15.644 123.926 14.7 124.142 13.812C124.358 12.916 124.666 12.092 125.066 11.34C125.466 10.58 125.942 9.9 126.494 9.3C127.054 8.7 127.674 8.188 128.354 7.764C129.042 7.34 129.778 7.016 130.562 6.792C131.354 6.568 132.178 6.456 133.034 6.456C133.666 6.456 134.242 6.516 134.762 6.636C135.282 6.748 135.75 6.908 136.166 7.116C136.59 7.324 136.97 7.576 137.306 7.872C137.65 8.16 137.958 8.484 138.23 8.844L137.15 10.14C137.07 10.236 136.974 10.32 136.862 10.392C136.758 10.464 136.626 10.5 136.466 10.5C136.29 10.5 136.122 10.428 135.962 10.284C135.802 10.14 135.598 9.984 135.35 9.816C135.11 9.64 134.794 9.48 134.402 9.336C134.018 9.192 133.51 9.12 132.878 9.12C132.046 9.12 131.27 9.292 130.55 9.636C129.838 9.972 129.218 10.456 128.69 11.088C128.162 11.72 127.746 12.484 127.442 13.38C127.146 14.268 126.998 15.268 126.998 16.38C126.998 17.188 127.098 17.912 127.298 18.552C127.506 19.192 127.79 19.736 128.15 20.184C128.518 20.624 128.95 20.964 129.446 21.204C129.942 21.436 130.482 21.552 131.066 21.552ZM143.705 24H140.573L142.685 6.648H145.817L143.705 24ZM158.566 17.472L157.39 11.532C157.342 11.26 157.286 10.944 157.222 10.584C157.158 10.224 157.094 9.832 157.03 9.408C156.87 9.832 156.714 10.224 156.562 10.584C156.41 10.944 156.274 11.264 156.154 11.544L153.526 17.472H158.566ZM163.09 24H160.678C160.406 24 160.194 23.936 160.042 23.808C159.898 23.672 159.794 23.5 159.73 23.292L159.01 19.668H152.542L150.934 23.292C150.846 23.476 150.702 23.64 150.502 23.784C150.31 23.928 150.086 24 149.83 24H147.382L155.77 6.648H158.95L163.09 24Z" fill="#294165"/>
<path d="M202.876 11.5152H195.751V13.999C195.751 15.7599 194.237 17.1926 192.376 17.1926C190.515 17.1926 189.001 15.7599 189.001 13.999V8.60549L185.959 10.3353C185.054 10.8454 184.501 11.7724 184.501 12.766V14.864L180.751 16.9132C180.034 17.3035 179.785 18.1728 180.203 18.8515L183.953 24.9991C184.365 25.6777 185.284 25.9083 186.001 25.518L190.848 22.87H197.251C198.906 22.87 200.251 21.597 200.251 20.0313H201.001C201.831 20.0313 202.501 19.397 202.501 18.612V15.7732H202.876C203.499 15.7732 204.001 15.2986 204.001 14.7087V12.5797C204.001 11.9898 203.499 11.5152 202.876 11.5152ZM209.799 9.8563L206.049 3.70872C205.637 3.03009 204.718 2.79944 204.001 3.18977L199.154 5.83775H194.364C193.801 5.83775 193.253 5.98856 192.774 6.26799L191.204 7.19501C190.764 7.45227 190.501 7.90912 190.501 8.39703V13.999C190.501 14.9793 191.34 15.7732 192.376 15.7732C193.412 15.7732 194.251 14.9793 194.251 13.999V10.0958H202.876C204.324 10.0958 205.501 11.2091 205.501 12.5797V13.8438L209.251 11.7946C209.968 11.3999 210.212 10.5349 209.799 9.8563Z" fill="#294165"/>
</svg>
