<svg width="108" height="72" viewBox="0 0 108 72" fill="none" xmlns="http://www.w3.org/2000/svg">
<path d="M107.38 42.7674L93.8006 66.0465C92.7439 67.8582 91.2308 69.3612 89.4121 70.4058C87.5935 71.4504 85.5328 72.0001 83.4355 72H8.44219C4.96913 72 2.80519 68.2326 4.55513 65.2326L18.1346 41.9535C19.1914 40.1419 20.7046 38.6389 22.5233 37.5943C24.342 36.5497 26.4027 36 28.5 36H103.493C106.966 36 109.13 39.7674 107.38 42.7674ZM28.5 30H90V21C90 16.0294 85.9706 12 81 12H51L39 0H9C4.02938 0 0 4.02938 0 9V61.1336L12.9519 38.9303C16.1651 33.4219 22.1229 30 28.5 30Z" fill="#294165"/>
</svg>
