<svg width="108" height="76" viewBox="0 0 108 76" fill="none" xmlns="http://www.w3.org/2000/svg">
<path d="M32.4 37.8C42.8456 37.8 51.3 29.3456 51.3 18.9C51.3 8.45438 42.8456 0 32.4 0C21.9544 0 13.5 8.45438 13.5 18.9C13.5 29.3456 21.9544 37.8 32.4 37.8ZM45.36 43.2H43.9594C40.4494 44.8875 36.5513 45.9 32.4 45.9C28.2488 45.9 24.3675 44.8875 20.8406 43.2H19.44C8.7075 43.2 0 51.9075 0 62.64V67.5C0 71.9719 3.62812 75.6 8.1 75.6H56.7C61.1719 75.6 64.8 71.9719 64.8 67.5V62.64C64.8 51.9075 56.0925 43.2 45.36 43.2ZM81 37.8C89.9437 37.8 97.2 30.5438 97.2 21.6C97.2 12.6562 89.9437 5.4 81 5.4C72.0563 5.4 64.8 12.6562 64.8 21.6C64.8 30.5438 72.0563 37.8 81 37.8ZM89.1 43.2H88.4588C86.1131 44.01 83.6325 44.55 81 44.55C78.3675 44.55 75.8869 44.01 73.5413 43.2H72.9C69.4575 43.2 66.285 44.1956 63.5006 45.7987C67.6181 50.2369 70.2 56.1263 70.2 62.64V69.12C70.2 69.4912 70.1156 69.8456 70.0987 70.2H99.9C104.372 70.2 108 66.5719 108 62.1C108 51.6544 99.5456 43.2 89.1 43.2Z" fill="#294165"/>
</svg>
