<svg width="108" height="84" viewBox="0 0 108 84" fill="none" xmlns="http://www.w3.org/2000/svg">
<path d="M78 30C78 13.425 60.5438 0 39 0C17.4562 0 0 13.425 0 30C0 36.4312 2.64375 42.3562 7.125 47.25C4.6125 52.9125 0.46875 57.4125 0.4125 57.4687C0 57.9 -0.1125 58.5375 0.13125 59.1C0.375 59.6625 0.9 60 1.5 60C8.3625 60 14.0437 57.6937 18.1312 55.3125C24.1687 58.2562 31.3125 60 39 60C60.5438 60 78 46.575 78 30ZM100.875 71.25C105.356 66.375 108 60.4312 108 54C108 41.4562 97.9688 30.7125 83.7563 26.2312C83.925 27.4687 84 28.725 84 30C84 49.8562 63.8063 66 39 66C36.975 66 35.0063 65.85 33.0563 65.6437C38.9625 76.425 52.8375 84 69 84C76.6875 84 83.8312 82.275 89.8687 79.3125C93.9562 81.6937 99.6375 84 106.5 84C107.1 84 107.644 83.6437 107.869 83.1C108.112 82.5562 108 81.9187 107.587 81.4687C107.531 81.4125 103.387 76.9312 100.875 71.25Z" fill="#294165"/>
</svg>
