<svg width="492" height="145" viewBox="0 0 492 145" fill="none" xmlns="http://www.w3.org/2000/svg">
<path fill-rule="evenodd" clip-rule="evenodd" d="M74.3658 10.7175L73.0564 1.01433L62.0775 17.9417L8.40705 4.75012L16.3236 15.4574L5.46797 7.53207L17.9279 60.3766L1.06827 70.3513L10.8054 71.8471L0.987305 73.1322L19.5788 84.7162L4.89821 134.629L16.6009 126.33L7.76613 137.475L59.2593 124.507L70.8152 144.004L72.359 134.061L73.6465 143.984L85.0427 125.781L137.899 138.98L129.902 128.192L140.838 136.198L128.276 83.84L146.125 73.8135L136.2 72.3595L146.208 71.1201L128.633 60.71L142.595 9.81737L131.304 17.7268L139.727 6.97176L87.1433 19.2485L75.9257 0.998047L74.3658 10.7175ZM73.3101 45.7348L46.0914 72.1212L73.3101 98.5076L100.529 72.1212L73.3101 45.7348Z" fill="#294165"/>
<path d="M211.778 40.9995L196.886 78H189.95L175.058 40.9995H181.229C181.892 40.9995 182.428 41.161 182.836 41.484C183.261 41.79 183.575 42.1895 183.779 42.6825L191.786 64.0005C192.092 64.7995 192.39 65.675 192.679 66.627C192.985 67.562 193.265 68.548 193.52 69.585C193.741 68.548 193.979 67.562 194.234 66.627C194.506 65.675 194.795 64.7995 195.101 64.0005L203.057 42.6825C203.227 42.2575 203.525 41.875 203.95 41.535C204.392 41.178 204.936 40.9995 205.582 40.9995H211.778ZM226.984 78H219.283V40.9995H226.984V78ZM234.379 30.468L226.142 37.761C225.955 37.914 225.777 38.0415 225.607 38.1435C225.437 38.2285 225.258 38.2965 225.071 38.3475C224.901 38.3985 224.706 38.4325 224.485 38.4495C224.281 38.4665 224.051 38.475 223.796 38.475H218.696L223.796 31.5645C223.983 31.3095 224.162 31.114 224.332 30.978C224.519 30.825 224.714 30.7145 224.918 30.6465C225.139 30.5615 225.386 30.5105 225.658 30.4935C225.93 30.4765 226.244 30.468 226.601 30.468H234.379ZM270.499 40.9995V78H266.546C265.951 78 265.45 77.9065 265.042 77.7195C264.634 77.5155 264.234 77.1755 263.843 76.6995L245.407 53.2395C245.458 53.8345 245.492 54.421 245.509 54.999C245.543 55.577 245.56 56.1125 245.56 56.6055V78H238.802V40.9995H242.831C243.154 40.9995 243.426 41.0165 243.647 41.0505C243.885 41.0675 244.098 41.127 244.285 41.229C244.472 41.314 244.65 41.433 244.82 41.586C244.99 41.739 245.177 41.943 245.381 42.198L263.945 65.76C263.877 65.114 263.826 64.4935 263.792 63.8985C263.758 63.2865 263.741 62.7085 263.741 62.1645V40.9995H270.499ZM307.522 68.8965C307.947 68.8965 308.304 69.0495 308.593 69.3555L311.627 72.594C310.131 74.498 308.27 75.943 306.043 76.929C303.833 77.915 301.198 78.408 298.138 78.408C295.367 78.408 292.876 77.9405 290.666 77.0055C288.456 76.0535 286.578 74.736 285.031 73.053C283.484 71.37 282.294 69.3725 281.461 67.0605C280.628 64.7485 280.211 62.224 280.211 59.487C280.211 57.651 280.407 55.9085 280.798 54.2595C281.206 52.5935 281.792 51.0635 282.557 49.6695C283.322 48.2755 284.24 47.0175 285.311 45.8955C286.399 44.7735 287.623 43.8215 288.983 43.0395C290.343 42.2405 291.822 41.637 293.42 41.229C295.035 40.804 296.752 40.5915 298.571 40.5915C299.931 40.5915 301.215 40.7105 302.422 40.9485C303.646 41.1865 304.785 41.518 305.839 41.943C306.893 42.368 307.862 42.8865 308.746 43.4985C309.647 44.0935 310.454 44.748 311.168 45.462L308.593 48.981C308.44 49.202 308.244 49.3975 308.006 49.5675C307.768 49.7375 307.445 49.8225 307.037 49.8225C306.629 49.8225 306.213 49.678 305.788 49.389C305.38 49.1 304.87 48.777 304.258 48.42C303.663 48.063 302.906 47.74 301.988 47.451C301.087 47.162 299.94 47.0175 298.546 47.0175C296.999 47.0175 295.579 47.298 294.287 47.859C292.995 48.42 291.882 49.236 290.947 50.307C290.029 51.361 289.315 52.6615 288.805 54.2085C288.295 55.7555 288.04 57.515 288.04 59.487C288.04 61.476 288.312 63.2525 288.856 64.8165C289.417 66.3635 290.173 67.6725 291.125 68.7435C292.094 69.8145 293.216 70.6305 294.491 71.1915C295.783 71.7355 297.16 72.0075 298.622 72.0075C299.489 72.0075 300.271 71.965 300.968 71.88C301.682 71.795 302.337 71.6505 302.932 71.4465C303.544 71.2425 304.113 70.979 304.64 70.656C305.184 70.333 305.728 69.925 306.272 69.432C306.459 69.279 306.655 69.1515 306.859 69.0495C307.063 68.9475 307.284 68.8965 307.522 68.8965ZM335.173 71.88C336.414 71.88 337.527 71.676 338.513 71.268C339.499 70.843 340.332 70.248 341.012 69.483C341.692 68.718 342.211 67.7915 342.568 66.7035C342.925 65.6155 343.103 64.3915 343.103 63.0315V40.9995H350.753V63.0315C350.753 65.2755 350.388 67.341 349.657 69.228C348.943 71.098 347.914 72.713 346.571 74.073C345.228 75.433 343.596 76.4955 341.675 77.2605C339.754 78.0255 337.587 78.408 335.173 78.408C332.759 78.408 330.583 78.0255 328.645 77.2605C326.724 76.4955 325.092 75.433 323.749 74.073C322.406 72.713 321.369 71.098 320.638 69.228C319.924 67.341 319.567 65.2755 319.567 63.0315V40.9995H327.217V63.0315C327.217 64.3915 327.395 65.6155 327.752 66.7035C328.109 67.7915 328.628 68.718 329.308 69.483C329.988 70.248 330.821 70.843 331.807 71.268C332.793 71.676 333.915 71.88 335.173 71.88ZM384.062 71.778V78H362.107V40.9995H369.757V71.778H384.062ZM427.438 59.487C427.438 62.19 426.979 64.6975 426.061 67.0095C425.16 69.3215 423.876 71.319 422.21 73.002C420.561 74.685 418.572 76.011 416.243 76.98C413.914 77.932 411.33 78.408 408.491 78.408C405.652 78.408 403.068 77.932 400.739 76.98C398.41 76.011 396.413 74.685 394.747 73.002C393.081 71.319 391.789 69.3215 390.871 67.0095C389.97 64.6975 389.519 62.19 389.519 59.487C389.519 56.784 389.97 54.285 390.871 51.99C391.789 49.678 393.081 47.6805 394.747 45.9975C396.413 44.3145 398.41 42.997 400.739 42.045C403.068 41.076 405.652 40.5915 408.491 40.5915C411.33 40.5915 413.914 41.076 416.243 42.045C418.572 42.997 420.561 44.323 422.21 46.023C423.876 47.706 425.16 49.7035 426.061 52.0155C426.979 54.3105 427.438 56.801 427.438 59.487ZM419.609 59.487C419.609 57.549 419.354 55.815 418.844 54.285C418.334 52.738 417.595 51.429 416.626 50.358C415.674 49.27 414.509 48.4455 413.132 47.8845C411.772 47.3065 410.225 47.0175 408.491 47.0175C406.757 47.0175 405.202 47.3065 403.825 47.8845C402.448 48.4455 401.275 49.27 400.306 50.358C399.354 51.429 398.623 52.738 398.113 54.285C397.603 55.815 397.348 57.549 397.348 59.487C397.348 61.442 397.603 63.193 398.113 64.74C398.623 66.27 399.354 67.5705 400.306 68.6415C401.275 69.7125 402.448 70.537 403.825 71.115C405.202 71.676 406.757 71.9565 408.491 71.9565C410.225 71.9565 411.772 71.676 413.132 71.115C414.509 70.537 415.674 69.7125 416.626 68.6415C417.595 67.5705 418.334 66.27 418.844 64.74C419.354 63.193 419.609 61.442 419.609 59.487ZM457.148 48.0885C456.91 48.4795 456.663 48.7685 456.408 48.9555C456.17 49.1255 455.856 49.2105 455.465 49.2105C455.091 49.2105 454.683 49.083 454.241 48.828C453.816 48.556 453.314 48.267 452.736 47.961C452.158 47.655 451.495 47.3745 450.747 47.1195C449.999 46.8475 449.124 46.7115 448.121 46.7115C446.353 46.7115 445.027 47.111 444.143 47.91C443.259 48.692 442.817 49.7205 442.817 50.9955C442.817 51.8115 443.055 52.4915 443.531 53.0355C444.024 53.5625 444.661 54.0215 445.443 54.4125C446.242 54.8035 447.143 55.152 448.146 55.458C449.149 55.764 450.178 56.104 451.232 56.478C452.286 56.835 453.314 57.26 454.317 57.753C455.32 58.246 456.213 58.8665 456.995 59.6145C457.794 60.3625 458.431 61.2805 458.907 62.3685C459.4 63.4395 459.647 64.7485 459.647 66.2955C459.647 67.9785 459.349 69.5595 458.754 71.0385C458.176 72.5005 457.335 73.784 456.23 74.889C455.125 75.977 453.756 76.8355 452.124 77.4645C450.509 78.0935 448.673 78.408 446.616 78.408C445.443 78.408 444.27 78.289 443.097 78.051C441.941 77.813 440.819 77.4815 439.731 77.0565C438.66 76.6315 437.649 76.1215 436.697 75.5265C435.745 74.9315 434.912 74.2685 434.198 73.5375L436.442 69.9165C436.629 69.6445 436.875 69.4235 437.181 69.2535C437.487 69.0665 437.81 68.973 438.15 68.973C438.609 68.973 439.094 69.143 439.604 69.483C440.114 69.823 440.7 70.197 441.363 70.605C442.026 71.013 442.791 71.387 443.658 71.727C444.542 72.067 445.596 72.237 446.82 72.237C448.605 72.237 449.982 71.829 450.951 71.013C451.937 70.197 452.43 68.9815 452.43 67.3665C452.43 66.4315 452.184 65.675 451.691 65.097C451.215 64.519 450.586 64.0345 449.804 63.6435C449.022 63.2525 448.129 62.921 447.126 62.649C446.123 62.36 445.095 62.0455 444.041 61.7055C442.987 61.3655 441.958 60.9575 440.955 60.4815C439.952 60.0055 439.06 59.3765 438.278 58.5945C437.496 57.8125 436.858 56.8435 436.365 55.6875C435.889 54.5315 435.651 53.095 435.651 51.378C435.651 50.001 435.923 48.6665 436.467 47.3745C437.011 46.0825 437.81 44.935 438.864 43.932C439.918 42.929 441.21 42.1215 442.74 41.5095C444.287 40.8975 446.055 40.5915 448.044 40.5915C450.271 40.5915 452.328 40.94 454.215 41.637C456.119 42.317 457.726 43.269 459.035 44.493L457.148 48.0885Z" fill="white"/>
<path d="M196.743 110.651C196.839 110.651 196.923 110.69 196.995 110.768L197.688 111.515C197.16 112.127 196.518 112.604 195.762 112.946C195.012 113.288 194.103 113.459 193.035 113.459C192.111 113.459 191.271 113.3 190.515 112.982C189.759 112.658 189.114 112.208 188.58 111.632C188.046 111.05 187.632 110.354 187.338 109.544C187.044 108.734 186.897 107.843 186.897 106.871C186.897 105.899 187.05 105.008 187.356 104.198C187.662 103.388 188.091 102.692 188.643 102.11C189.201 101.528 189.867 101.078 190.641 100.76C191.415 100.436 192.27 100.274 193.206 100.274C194.124 100.274 194.934 100.421 195.636 100.715C196.338 101.009 196.956 101.408 197.49 101.912L196.914 102.713C196.878 102.773 196.83 102.824 196.77 102.866C196.716 102.902 196.641 102.92 196.545 102.92C196.437 102.92 196.305 102.863 196.149 102.749C195.993 102.629 195.789 102.497 195.537 102.353C195.285 102.209 194.97 102.08 194.592 101.966C194.214 101.846 193.749 101.786 193.197 101.786C192.531 101.786 191.922 101.903 191.37 102.137C190.818 102.365 190.341 102.698 189.939 103.136C189.543 103.574 189.234 104.108 189.012 104.738C188.79 105.368 188.679 106.079 188.679 106.871C188.679 107.675 188.793 108.392 189.021 109.022C189.255 109.652 189.57 110.186 189.966 110.624C190.368 111.056 190.839 111.386 191.379 111.614C191.925 111.842 192.513 111.956 193.143 111.956C193.527 111.956 193.872 111.935 194.178 111.893C194.49 111.845 194.775 111.773 195.033 111.677C195.297 111.581 195.54 111.461 195.762 111.317C195.99 111.167 196.215 110.99 196.437 110.786C196.539 110.696 196.641 110.651 196.743 110.651ZM212.822 106.871C212.822 107.837 212.669 108.725 212.363 109.535C212.057 110.339 211.625 111.032 211.067 111.614C210.509 112.196 209.837 112.649 209.051 112.973C208.271 113.291 207.407 113.45 206.459 113.45C205.511 113.45 204.647 113.291 203.867 112.973C203.087 112.649 202.418 112.196 201.86 111.614C201.302 111.032 200.87 110.339 200.564 109.535C200.258 108.725 200.105 107.837 200.105 106.871C200.105 105.905 200.258 105.02 200.564 104.216C200.87 103.406 201.302 102.71 201.86 102.128C202.418 101.54 203.087 101.084 203.867 100.76C204.647 100.436 205.511 100.274 206.459 100.274C207.407 100.274 208.271 100.436 209.051 100.76C209.837 101.084 210.509 101.54 211.067 102.128C211.625 102.71 212.057 103.406 212.363 104.216C212.669 105.02 212.822 105.905 212.822 106.871ZM211.031 106.871C211.031 106.079 210.923 105.368 210.707 104.738C210.491 104.108 210.185 103.577 209.789 103.145C209.393 102.707 208.913 102.371 208.349 102.137C207.785 101.903 207.155 101.786 206.459 101.786C205.769 101.786 205.142 101.903 204.578 102.137C204.014 102.371 203.531 102.707 203.129 103.145C202.733 103.577 202.427 104.108 202.211 104.738C201.995 105.368 201.887 106.079 201.887 106.871C201.887 107.663 201.995 108.374 202.211 109.004C202.427 109.628 202.733 110.159 203.129 110.597C203.531 111.029 204.014 111.362 204.578 111.596C205.142 111.824 205.769 111.938 206.459 111.938C207.155 111.938 207.785 111.824 208.349 111.596C208.913 111.362 209.393 111.029 209.789 110.597C210.185 110.159 210.491 109.628 210.707 109.004C210.923 108.374 211.031 107.663 211.031 106.871ZM227.209 100.418V113.315H226.336C226.198 113.315 226.081 113.291 225.985 113.243C225.895 113.195 225.805 113.114 225.715 113L218.254 103.28C218.266 103.43 218.275 103.577 218.281 103.721C218.287 103.865 218.29 104 218.29 104.126V113.315H216.76V100.418H217.66C217.738 100.418 217.804 100.424 217.858 100.436C217.912 100.442 217.96 100.457 218.002 100.481C218.044 100.499 218.086 100.529 218.128 100.571C218.17 100.607 218.215 100.655 218.263 100.715L225.724 110.426C225.712 110.27 225.7 110.12 225.688 109.976C225.682 109.826 225.679 109.685 225.679 109.553V100.418H227.209ZM238.543 102.434C238.489 102.524 238.429 102.593 238.363 102.641C238.303 102.683 238.228 102.704 238.138 102.704C238.036 102.704 237.916 102.653 237.778 102.551C237.64 102.449 237.466 102.338 237.256 102.218C237.052 102.092 236.803 101.978 236.509 101.876C236.221 101.774 235.87 101.723 235.456 101.723C235.066 101.723 234.721 101.777 234.421 101.885C234.127 101.987 233.878 102.128 233.674 102.308C233.476 102.488 233.326 102.701 233.224 102.947C233.122 103.187 233.071 103.448 233.071 103.73C233.071 104.09 233.158 104.39 233.332 104.63C233.512 104.864 233.746 105.065 234.034 105.233C234.328 105.401 234.658 105.548 235.024 105.674C235.396 105.794 235.774 105.92 236.158 106.052C236.548 106.184 236.926 106.334 237.292 106.502C237.664 106.664 237.994 106.871 238.282 107.123C238.576 107.375 238.81 107.684 238.984 108.05C239.164 108.416 239.254 108.866 239.254 109.4C239.254 109.964 239.158 110.495 238.966 110.993C238.774 111.485 238.492 111.914 238.12 112.28C237.754 112.646 237.301 112.934 236.761 113.144C236.227 113.354 235.618 113.459 234.934 113.459C234.094 113.459 233.332 113.309 232.648 113.009C231.964 112.703 231.379 112.292 230.893 111.776L231.397 110.948C231.445 110.882 231.502 110.828 231.568 110.786C231.64 110.738 231.718 110.714 231.802 110.714C231.88 110.714 231.967 110.747 232.063 110.813C232.165 110.873 232.279 110.951 232.405 111.047C232.531 111.143 232.675 111.248 232.837 111.362C232.999 111.476 233.182 111.581 233.386 111.677C233.596 111.773 233.833 111.854 234.097 111.92C234.361 111.98 234.658 112.01 234.988 112.01C235.402 112.01 235.771 111.953 236.095 111.839C236.419 111.725 236.692 111.566 236.914 111.362C237.142 111.152 237.316 110.903 237.436 110.615C237.556 110.327 237.616 110.006 237.616 109.652C237.616 109.262 237.526 108.944 237.346 108.698C237.172 108.446 236.941 108.236 236.653 108.068C236.365 107.9 236.035 107.759 235.663 107.645C235.291 107.525 234.913 107.405 234.529 107.285C234.145 107.159 233.767 107.015 233.395 106.853C233.023 106.691 232.693 106.481 232.405 106.223C232.117 105.965 231.883 105.644 231.703 105.26C231.529 104.87 231.442 104.39 231.442 103.82C231.442 103.364 231.529 102.923 231.703 102.497C231.883 102.071 232.141 101.693 232.477 101.363C232.819 101.033 233.236 100.769 233.728 100.571C234.226 100.373 234.796 100.274 235.438 100.274C236.158 100.274 236.812 100.388 237.4 100.616C237.994 100.844 238.516 101.174 238.966 101.606L238.543 102.434ZM248.137 111.929C248.671 111.929 249.148 111.839 249.568 111.659C249.988 111.479 250.342 111.227 250.63 110.903C250.924 110.579 251.146 110.192 251.296 109.742C251.452 109.292 251.53 108.797 251.53 108.257V100.418H253.267V108.257C253.267 109.001 253.147 109.691 252.907 110.327C252.673 110.963 252.334 111.515 251.89 111.983C251.452 112.445 250.915 112.808 250.279 113.072C249.643 113.336 248.929 113.468 248.137 113.468C247.345 113.468 246.631 113.336 245.995 113.072C245.359 112.808 244.819 112.445 244.375 111.983C243.931 111.515 243.589 110.963 243.349 110.327C243.115 109.691 242.998 109.001 242.998 108.257V100.418H244.735V108.248C244.735 108.788 244.81 109.283 244.96 109.733C245.116 110.183 245.338 110.57 245.626 110.894C245.92 111.218 246.277 111.473 246.697 111.659C247.123 111.839 247.603 111.929 248.137 111.929ZM265.153 111.848V113.315H257.836V100.418H259.573V111.848H265.153ZM275.555 101.885H271.379V113.315H269.642V101.885H265.457V100.418H275.555V101.885ZM290.245 106.871C290.245 107.837 290.092 108.725 289.786 109.535C289.48 110.339 289.048 111.032 288.49 111.614C287.932 112.196 287.26 112.649 286.474 112.973C285.694 113.291 284.83 113.45 283.882 113.45C282.934 113.45 282.07 113.291 281.29 112.973C280.51 112.649 279.841 112.196 279.283 111.614C278.725 111.032 278.293 110.339 277.987 109.535C277.681 108.725 277.528 107.837 277.528 106.871C277.528 105.905 277.681 105.02 277.987 104.216C278.293 103.406 278.725 102.71 279.283 102.128C279.841 101.54 280.51 101.084 281.29 100.76C282.07 100.436 282.934 100.274 283.882 100.274C284.83 100.274 285.694 100.436 286.474 100.76C287.26 101.084 287.932 101.54 288.49 102.128C289.048 102.71 289.48 103.406 289.786 104.216C290.092 105.02 290.245 105.905 290.245 106.871ZM288.454 106.871C288.454 106.079 288.346 105.368 288.13 104.738C287.914 104.108 287.608 103.577 287.212 103.145C286.816 102.707 286.336 102.371 285.772 102.137C285.208 101.903 284.578 101.786 283.882 101.786C283.192 101.786 282.565 101.903 282.001 102.137C281.437 102.371 280.954 102.707 280.552 103.145C280.156 103.577 279.85 104.108 279.634 104.738C279.418 105.368 279.31 106.079 279.31 106.871C279.31 107.663 279.418 108.374 279.634 109.004C279.85 109.628 280.156 110.159 280.552 110.597C280.954 111.029 281.437 111.362 282.001 111.596C282.565 111.824 283.192 111.938 283.882 111.938C284.578 111.938 285.208 111.824 285.772 111.596C286.336 111.362 286.816 111.029 287.212 110.597C287.608 110.159 287.914 109.628 288.13 109.004C288.346 108.374 288.454 107.663 288.454 106.871ZM297.756 106.664C298.26 106.664 298.704 106.604 299.088 106.484C299.478 106.358 299.802 106.184 300.06 105.962C300.324 105.734 300.522 105.464 300.654 105.152C300.786 104.84 300.852 104.495 300.852 104.117C300.852 103.349 300.6 102.77 300.096 102.38C299.592 101.99 298.836 101.795 297.828 101.795H295.92V106.664H297.756ZM303.714 113.315H302.166C301.848 113.315 301.614 113.192 301.464 112.946L298.116 108.338C298.014 108.194 297.903 108.092 297.783 108.032C297.669 107.966 297.489 107.933 297.243 107.933H295.92V113.315H294.183V100.418H297.828C298.644 100.418 299.349 100.502 299.943 100.67C300.537 100.832 301.026 101.069 301.41 101.381C301.8 101.693 302.088 102.071 302.274 102.515C302.46 102.953 302.553 103.445 302.553 103.991C302.553 104.447 302.481 104.873 302.337 105.269C302.193 105.665 301.983 106.022 301.707 106.34C301.437 106.652 301.104 106.919 300.708 107.141C300.318 107.363 299.874 107.531 299.376 107.645C299.598 107.771 299.79 107.954 299.952 108.194L303.714 113.315ZM308.654 113.315H306.908V100.418H308.654V113.315ZM311.21 96.6471L308.276 99.2211C308.186 99.3051 308.099 99.3561 308.015 99.3741C307.931 99.3921 307.829 99.4011 307.709 99.4011H306.557L308.636 96.9351C308.738 96.8031 308.84 96.7221 308.942 96.6921C309.05 96.6621 309.203 96.6471 309.401 96.6471H311.21ZM320.242 108.527L318.217 103.28C318.157 103.124 318.094 102.944 318.028 102.74C317.962 102.53 317.899 102.308 317.839 102.074C317.713 102.56 317.584 102.965 317.452 103.289L315.427 108.527H320.242ZM323.878 113.315H322.528C322.372 113.315 322.246 113.276 322.15 113.198C322.054 113.12 321.982 113.021 321.934 112.901L320.728 109.787H314.941L313.735 112.901C313.699 113.009 313.63 113.105 313.528 113.189C313.426 113.273 313.3 113.315 313.15 113.315H311.8L316.957 100.418H318.721L323.878 113.315ZM340.419 111.893L340.41 113.315H332.463V100.418H340.41V101.84H334.209V106.124H339.231V107.492H334.209V111.893H340.419ZM357.71 100.418V113.315H356.18V103.838C356.18 103.712 356.183 103.577 356.189 103.433C356.201 103.289 356.213 103.142 356.225 102.992L351.797 111.056C351.659 111.326 351.449 111.461 351.167 111.461H350.915C350.633 111.461 350.423 111.326 350.285 111.056L345.767 102.956C345.803 103.274 345.821 103.568 345.821 103.838V113.315H344.291V100.418H345.578C345.734 100.418 345.854 100.433 345.938 100.463C346.022 100.493 346.103 100.577 346.181 100.715L350.636 108.653C350.708 108.797 350.777 108.947 350.843 109.103C350.915 109.259 350.981 109.418 351.041 109.58C351.101 109.418 351.164 109.259 351.23 109.103C351.296 108.941 351.368 108.788 351.446 108.644L355.82 100.715C355.892 100.577 355.97 100.493 356.054 100.463C356.144 100.433 356.267 100.418 356.423 100.418H357.71ZM366.255 107.105C366.753 107.105 367.191 107.039 367.569 106.907C367.953 106.775 368.274 106.592 368.532 106.358C368.796 106.118 368.994 105.833 369.126 105.503C369.258 105.173 369.324 104.81 369.324 104.414C369.324 103.592 369.069 102.95 368.559 102.488C368.055 102.026 367.287 101.795 366.255 101.795H364.185V107.105H366.255ZM366.255 100.418C367.071 100.418 367.779 100.514 368.379 100.706C368.985 100.892 369.486 101.159 369.882 101.507C370.278 101.855 370.572 102.275 370.764 102.767C370.962 103.259 371.061 103.808 371.061 104.414C371.061 105.014 370.956 105.563 370.746 106.061C370.536 106.559 370.227 106.988 369.819 107.348C369.417 107.708 368.916 107.99 368.316 108.194C367.722 108.392 367.035 108.491 366.255 108.491H364.185V113.315H362.448V100.418H366.255ZM382.655 111.893L382.646 113.315H374.699V100.418H382.646V101.84H376.445V106.124H381.467V107.492H376.445V111.893H382.655ZM393.124 102.434C393.07 102.524 393.01 102.593 392.944 102.641C392.884 102.683 392.809 102.704 392.719 102.704C392.617 102.704 392.497 102.653 392.359 102.551C392.221 102.449 392.047 102.338 391.837 102.218C391.633 102.092 391.384 101.978 391.09 101.876C390.802 101.774 390.451 101.723 390.037 101.723C389.647 101.723 389.302 101.777 389.002 101.885C388.708 101.987 388.459 102.128 388.255 102.308C388.057 102.488 387.907 102.701 387.805 102.947C387.703 103.187 387.652 103.448 387.652 103.73C387.652 104.09 387.739 104.39 387.913 104.63C388.093 104.864 388.327 105.065 388.615 105.233C388.909 105.401 389.239 105.548 389.605 105.674C389.977 105.794 390.355 105.92 390.739 106.052C391.129 106.184 391.507 106.334 391.873 106.502C392.245 106.664 392.575 106.871 392.863 107.123C393.157 107.375 393.391 107.684 393.565 108.05C393.745 108.416 393.835 108.866 393.835 109.4C393.835 109.964 393.739 110.495 393.547 110.993C393.355 111.485 393.073 111.914 392.701 112.28C392.335 112.646 391.882 112.934 391.342 113.144C390.808 113.354 390.199 113.459 389.515 113.459C388.675 113.459 387.913 113.309 387.229 113.009C386.545 112.703 385.96 112.292 385.474 111.776L385.978 110.948C386.026 110.882 386.083 110.828 386.149 110.786C386.221 110.738 386.299 110.714 386.383 110.714C386.461 110.714 386.548 110.747 386.644 110.813C386.746 110.873 386.86 110.951 386.986 111.047C387.112 111.143 387.256 111.248 387.418 111.362C387.58 111.476 387.763 111.581 387.967 111.677C388.177 111.773 388.414 111.854 388.678 111.92C388.942 111.98 389.239 112.01 389.569 112.01C389.983 112.01 390.352 111.953 390.676 111.839C391 111.725 391.273 111.566 391.495 111.362C391.723 111.152 391.897 110.903 392.017 110.615C392.137 110.327 392.197 110.006 392.197 109.652C392.197 109.262 392.107 108.944 391.927 108.698C391.753 108.446 391.522 108.236 391.234 108.068C390.946 107.9 390.616 107.759 390.244 107.645C389.872 107.525 389.494 107.405 389.11 107.285C388.726 107.159 388.348 107.015 387.976 106.853C387.604 106.691 387.274 106.481 386.986 106.223C386.698 105.965 386.464 105.644 386.284 105.26C386.11 104.87 386.023 104.39 386.023 103.82C386.023 103.364 386.11 102.923 386.284 102.497C386.464 102.071 386.722 101.693 387.058 101.363C387.4 101.033 387.817 100.769 388.309 100.571C388.807 100.373 389.377 100.274 390.019 100.274C390.739 100.274 391.393 100.388 391.981 100.616C392.575 100.844 393.097 101.174 393.547 101.606L393.124 102.434ZM404.361 108.527L402.336 103.28C402.276 103.124 402.213 102.944 402.147 102.74C402.081 102.53 402.018 102.308 401.958 102.074C401.832 102.56 401.703 102.965 401.571 103.289L399.546 108.527H404.361ZM407.997 113.315H406.647C406.491 113.315 406.365 113.276 406.269 113.198C406.173 113.12 406.101 113.021 406.053 112.901L404.847 109.787H399.06L397.854 112.901C397.818 113.009 397.749 113.105 397.647 113.189C397.545 113.273 397.419 113.315 397.269 113.315H395.919L401.076 100.418H402.84L407.997 113.315ZM414.707 106.664C415.211 106.664 415.655 106.604 416.039 106.484C416.429 106.358 416.753 106.184 417.011 105.962C417.275 105.734 417.473 105.464 417.605 105.152C417.737 104.84 417.803 104.495 417.803 104.117C417.803 103.349 417.551 102.77 417.047 102.38C416.543 101.99 415.787 101.795 414.779 101.795H412.871V106.664H414.707ZM420.665 113.315H419.117C418.799 113.315 418.565 113.192 418.415 112.946L415.067 108.338C414.965 108.194 414.854 108.092 414.734 108.032C414.62 107.966 414.44 107.933 414.194 107.933H412.871V113.315H411.134V100.418H414.779C415.595 100.418 416.3 100.502 416.894 100.67C417.488 100.832 417.977 101.069 418.361 101.381C418.751 101.693 419.039 102.071 419.225 102.515C419.411 102.953 419.504 103.445 419.504 103.991C419.504 104.447 419.432 104.873 419.288 105.269C419.144 105.665 418.934 106.022 418.658 106.34C418.388 106.652 418.055 106.919 417.659 107.141C417.269 107.363 416.825 107.531 416.327 107.645C416.549 107.771 416.741 107.954 416.903 108.194L420.665 113.315ZM425.605 113.315H423.859V100.418H425.605V113.315ZM437.193 108.527L435.168 103.28C435.108 103.124 435.045 102.944 434.979 102.74C434.913 102.53 434.85 102.308 434.79 102.074C434.664 102.56 434.535 102.965 434.403 103.289L432.378 108.527H437.193ZM440.829 113.315H439.479C439.323 113.315 439.197 113.276 439.101 113.198C439.005 113.12 438.933 113.021 438.885 112.901L437.679 109.787H431.892L430.686 112.901C430.65 113.009 430.581 113.105 430.479 113.189C430.377 113.273 430.251 113.315 430.101 113.315H428.751L433.908 100.418H435.672L440.829 113.315ZM451.283 111.848V113.315H443.966V100.418H445.703V111.848H451.283Z" fill="white"/>
</svg>
